<?xml version="1.0" standalone="no"?>
<!DOCTYPE svg PUBLIC "-//W3C//DTD SVG 1.1//EN" "http://www.w3.org/Graphics/SVG/1.1/DTD/svg11.dtd" >
<svg xmlns="http://www.w3.org/2000/svg">
<metadata>Generated by IcoMoon</metadata>
<defs>
<font id="flexkit-icons" horiz-adv-x="1024">
<font-face units-per-em="1024" ascent="960" descent="-64" />
<missing-glyph horiz-adv-x="1024" />
<glyph unicode="&#x20;" horiz-adv-x="512" d="" />
<glyph unicode="&#xe000;" glyph-name="home" d="M1024 384l-192 192v192h-128v-64l-192 192-512-512h128v-384h320v256h128v-256h320v384z" />
<<<<<<< HEAD
<glyph unicode="&#xe001;" glyph-name="home2" d="M512 896l-512-512h128l384 384 384-384h128zM192 320v-320h256v256h128v-256h256v320l-320 320z" />
<glyph unicode="&#xe002;" glyph-name="home3" d="M511.466 832l-511.486-384h106.596l404.93 304 405.74-304h106.734zM768 128h-512v320h-64v-384h640.002v384h-64.002z" />
<glyph unicode="&#xe003;" glyph-name="office" d="M0-64h512v1024h-512v-1024zM320 832h128v-128h-128v128zM320 576h128v-128h-128v128zM320 320h128v-128h-128v128zM64 832h128v-128h-128v128zM64 576h128v-128h-128v128zM64 320h128v-128h-128v128zM576 640h448v-64h-448zM576-64h128v256h192v-256h128v576h-448z" />
<glyph unicode="&#xe004;" glyph-name="newspaper" d="M896 704v128h-896v-704c0-35.346 28.654-64 64-64h864c53.022 0 96 42.978 96 96v544h-128zM832 128h-768v640h768v-640zM128 640h640v-64h-640zM512 512h256v-64h-256zM512 384h256v-64h-256zM512 256h192v-64h-192zM128 512h320v-320h-320z" />
<glyph unicode="&#xe005;" glyph-name="pencil" d="M976 912c-64 64-128 64-192 0l-16-16 192-192 16 16c64 64 64 128 0 192zM64 192l-64-256 256 64 640 640-192 192-640-640zM256 128l-64 64 512 512 64-64-512-512z" />
<glyph unicode="&#xe006;" glyph-name="pencil2" d="M1014.664 803.92l-146.744 146.746c-12.448 12.444-32.808 12.444-45.256 0l-54.664-54.666 192-192 54.664 54.666c12.448 12.446 12.448 32.81 0 45.254zM256 192l256 64 384 384-192 192-384-384zM832 64h-704v704h384l128 128h-576c-35.2 0-64-28.8-64-64v-832c0-35.2 28.798-64 64-64h832c35.2 0 64 28.8 64 64v576l-128-128v-384z" />
<glyph unicode="&#xe007;" glyph-name="pencil3" d="M789.33 917.334l-85.33 42.666-576-576.002h128zM981.33 725.334l-533.33-533.336v-128l576 576.002zM864 864l-544-544.002v-64h64l544 544.002zM0-64l199.112 56.888-142.22 142.226zM256 319.998h-146.284l-24.382-85.332 213.332-213.332 85.334 24.378v146.286h-128z" />
<glyph unicode="&#xe008;" glyph-name="pencil4" d="M640 832l-512-512-128-384 384 128 512 512zM1024 778.98c0 99.976-81.044 181.020-181.020 181.020-55.578 0-105.296-25.056-138.502-64.478l255.044-255.044c39.424 33.206 64.478 82.924 64.478 138.502zM448 0h576v-64h-576z" />
<glyph unicode="&#xe009;" glyph-name="feather" d="M236.408 205.536c141.306 283.94 348.21 491.666 493.822 632.696-232.23-171.438-384.116-382.552-472.914-535.494-15.73-27.114-30.046-53.304-43.018-78.266-31.706-3.902-80.606-17.372-112.718-83.032 22.88 20.29 67.858 35.586 88.396 34.516-52.536-108.668-76.526-185.164-79.598-195.262 0.438-3.324 3.332-18.18 21.826-44.696 21.42 76.804 48.496 149.238 79.49 217.562 8.964-26.368 23.070-16.070 26.49-57.684 13.756 38.128 7.916 76.656-0.754 106.454-0.332 1.166-0.68 2.17-1.022 3.206zM617.442 863.544c-7.578-28.706-12.874-66.824-7.964-87.288-10.322 11.992-16.738 40.026-19.752 71.052-45.532-27.758-93.25-62.244-141.568-105.382-69.73-62.26-119.098-124.21-154.060-182.92 2.136-30.796-1.148-64.822 6.968-99.036-12.858 13.66-21.126 26.664-30.678 55.564-59.37-120.344-60.298-222.754-57.148-278.902 101.854 193.312 283.538 458.148 580.696 654.082-147.848-143.914-390.698-364.854-550.418-685.030 51.202-4.816 157.804 35.188 253.606 110.8-26.716 2.222-52.84 6.336-66.972 10.458 32.704 0.622 63.844 3.554 89.344 8.082 65.048 56.368 122.27 129.572 149.674 216.61-35.058-19.94-75.98-38.958-120.778-49.294 61.6 21.826 97.278 71.33 133.418 97.918 59.742 246.332 240.61 359.742 240.61 359.742s-133.448-0.11-304.978-96.456z" />
<glyph unicode="&#xe00a;" glyph-name="brush" d="M320.122 320c-128.050 0-84.362-226.28-320.122-277.274 64.022-42.648 251.796-78.054 384.144 21.336 114.452 85.95 64.026 255.938-64.022 255.938zM1011.93 883.93c-64.018 64.014-220.944-144.054-343.234-215.206-121.96-74.928-288.066-224.054-192.042-320.074 96.020-96.026 245.142 70.080 320.072 192.044 71.15 122.296 279.22 279.222 215.204 343.236z" />
<glyph unicode="&#xe00b;" glyph-name="pictures" d="M0 832v-768h1024v768h-1024zM960 128h-64l-192 288-128-96-256 320-192-512h-64v640h896v-640zM704 608c0 53.019 42.981 96 96 96s96-42.981 96-96c0-53.019-42.981-96-96-96s-96 42.981-96 96z" />
<glyph unicode="&#xe00c;" glyph-name="pictures2" d="M128 704v-640h896v640h-896zM960 170.666l-128 213.334-145.066-120.888-110.934 184.888-384-320v512h768v-469.334zM256 480c0 53.019 42.981 96 96 96s96-42.981 96-96c0-53.019-42.981-96-96-96s-96 42.981-96 96zM896 832h-896v-640h64v576h832z" />
<glyph unicode="&#xe00d;" glyph-name="picture" d="M832 384.226c-64 0-128-64.226-192-64.226s-64 256-192 256-256-128-320-384c0 0 704 0 768 0 0-0.002 0 192.226-64 192.226zM0 768v-704h1024v704h-1024zM960 128h-896v576h896v-576zM704 544c0 53.019 42.981 96 96 96s96-42.981 96-96c0-53.019-42.981-96-96-96s-96 42.981-96 96z" />
<glyph unicode="&#xe00e;" glyph-name="picture2" d="M0 768v-640h1024v640h-1024zM960 320l-192 192-91.796-137.694 182.306-182.306h-90.51l-320 320-384-320v512h896v-384zM128 544c0 53.019 42.981 96 96 96s96-42.981 96-96c0-53.019-42.981-96-96-96s-96 42.981-96 96z" />
<glyph unicode="&#xe00f;" glyph-name="pictures3" d="M768 896h-768v-768h768v768zM704 320h-640v512h640v-512zM512 640l-45.714-91.428-146.286 219.428-192-384h512zM832 713.246v-649.246h-711.056l-5.016-47.722 763.794-80.278 80.278 763.792z" />
<glyph unicode="&#xe010;" glyph-name="camera" d="M308.014 416c0 112.658 91.328 203.986 203.986 203.986s203.986-91.328 203.986-203.986c0-112.658-91.328-203.986-203.986-203.986s-203.986 91.328-203.986 203.986zM960 704h-224c-16 64-32 128-96 128h-256c-64 0-80-64-96-128h-224c-35.2 0-64-28.8-64-64v-512c0-35.2 28.8-64 64-64h896c35.2 0 64 28.8 64 64v512c0 35.2-28.8 64-64 64zM512 128c-159.058 0-288 128.942-288 288s128.942 288 288 288c159.058 0 288-128.942 288-288s-128.94-288-288-288zM960 576h-128v64h128v-64z" />
<glyph unicode="&#xe011;" glyph-name="camera2" d="M512 640c-141.384 0-256-114.616-256-256 0-141.382 114.616-256 256-256 141.378 0 256 114.618 256 256 0 141.384-114.616 256-256 256zM512 192c-106.042 0-192 85.96-192 192s85.958 192 192 192c106.038 0 192-85.96 192-192s-85.962-192-192-192zM960 768h-213.334l-42.666 128h-384l-42.666-128h-213.334c-35.2 0-64-28.8-64-64v-640c0-35.2 28.8-64 64-64h896c35.2 0 64 28.8 64 64v640c0 35.2-28.8 64-64 64zM960 64h-896v640h256l42.666 128h298.666l42.668-128h256v-640z" />
<glyph unicode="&#xe012;" glyph-name="movie" d="M78.302 697.46l865.444 231.884 49.69-185.452-865.444-231.884zM128 512v-576h896v576h-896zM448 64v320l256-160-256-160z" />
<glyph unicode="&#xe013;" glyph-name="movie2" d="M64 512v-576h960v576h-960zM960 320h-832v64h832v-64zM29.256 829.714l34.744-253.632 951.118 130.288-34.742 253.63-951.12-130.286zM368.994 682.458l-179.542-24.594 109.444 144.188 179.542 24.594-109.444-144.188zM739.534 733.216l-179.542-24.594 109.444 144.188 179.542 24.594-109.444-144.188z" />
<glyph unicode="&#xe014;" glyph-name="movie3" d="M512 960c-282.77 0-512-229.23-512-512s229.224-512 512-512c282.77 0 512 229.23 512 512s-229.23 512-512 512zM512 538.51c49.984 0 90.51-40.522 90.51-90.51s-40.526-90.51-90.51-90.51c-49.988 0-90.512 40.524-90.512 90.51 0 49.988 40.526 90.51 90.512 90.51zM230.638 242.64c-58.088-18.876-120.478 12.918-139.354 71.006-18.874 58.090 12.916 120.478 71.004 139.356 58.090 18.876 120.48-12.914 139.354-71.006 18.874-58.088-12.916-120.478-71.004-139.356zM381.988 629.29c-49.412-35.902-118.574-24.95-154.472 24.464-35.9 49.414-24.95 118.574 24.466 154.476 49.41 35.902 118.57 24.948 154.472-24.466s24.948-118.572-24.466-154.474zM512 7.978c-61.078 0-110.594 49.514-110.594 110.592s49.516 110.592 110.594 110.592c61.074 0 110.592-49.514 110.592-110.592s-49.516-110.592-110.592-110.592zM642.008 629.29c-49.414 35.902-60.372 105.060-24.468 154.472 35.902 49.414 105.062 60.372 154.476 24.468s60.368-105.062 24.46-154.476c-35.896-49.414-105.054-60.368-154.468-24.464zM793.362 242.64c-58.088 18.876-89.876 81.268-71.004 139.356 18.874 58.092 81.266 89.878 139.356 71.006 58.090-18.876 89.876-81.266 71.004-139.356-18.874-58.088-81.266-89.878-139.356-71.006z" />
<glyph unicode="&#xe015;" glyph-name="film" d="M0 832v-768h1024v768h-1024zM192 128h-128v128h128v-128zM192 384h-128v128h128v-128zM192 640h-128v128h128v-128zM768 128h-512v640h512v-640zM960 128h-128v128h128v-128zM960 384h-128v128h128v-128zM960 640h-128v128h128v-128z" />
<glyph unicode="&#xe016;" glyph-name="film2" d="M0 832v-768h1024v768h-1024zM192 128h-128v128h128v-128zM192 384h-128v128h128v-128zM192 640h-128v128h128v-128zM768 128h-512v640h512v-640zM960 128h-128v128h128v-128zM960 384h-128v128h128v-128zM960 640h-128v128h128v-128zM384 640v-384l256 192z" />
<glyph unicode="&#xe017;" glyph-name="king" d="M974.048 694.5c-33.744 33.744-80.114 49.952-131.5 49.952-68.888 0-146.808-29.116-215.532-84.124-16.264 49.816-46.48 87.516-83.018 101.622v70.050h96v64h-96v64h-64v-64h-96v-64h96v-70.048c-36.536-14.106-66.752-51.804-83.016-101.618-68.722 55.006-146.642 84.124-215.53 84.12-51.386-0.004-97.758-16.208-131.5-49.952-87.478-87.478-57.084-259.7 67.882-384.666 23.358-23.358 48.372-43.388 74.166-59.986v-93.764c87.658-17.57 198.908-28.086 320-28.086s232.342 10.516 320 28.086v93.76c25.794 16.596 50.808 36.628 74.166 59.986 124.966 124.968 155.36 297.192 67.882 384.668zM163.092 581.356c1.078 0.72 6.846 3.096 18.362 3.098h0.016c31.85 0 87.628-18.586 140.010-70.968 34.574-34.574 59.32-76.362 67.896-114.652 6.118-27.32 1.534-41.496-0.014-43.736-1.072-0.718-6.832-3.098-18.36-3.098-31.856 0-87.644 18.588-140.030 70.972-34.576 34.578-59.324 76.37-67.896 114.66-6.116 27.312-1.532 41.482 0.016 43.724zM860.922 537.62c-8.574-38.29-33.32-80.078-67.892-114.648-52.386-52.386-108.172-70.972-140.030-70.972-11.524 0-17.288 2.376-18.36 3.096-1.546 2.238-6.132 16.408-0.018 43.724 8.572 38.292 33.32 80.082 67.896 114.66 52.384 52.384 108.174 70.972 140.030 70.972 11.528 0 17.29-2.376 18.36-3.096 1.548-2.24 6.134-16.416 0.014-43.736zM192 58.336v-94.25c87.658-17.57 198.908-28.086 320-28.086s232.342 10.516 320 28.086v94.25c-93.828-17.25-203.96-26.336-320-26.336s-226.172 9.086-320 26.336z" />
<glyph unicode="&#xe018;" glyph-name="queen" d="M512 0c-114.588 0-225.762 9.934-313.042 27.968-2.338 0.482-4.656 0.974-6.958 1.468v-65.352c87.658-17.568 198.908-28.084 320-28.084s232.342 10.516 320 28.086v65.352c-2.302-0.494-4.62-0.986-6.958-1.468-87.278-18.036-198.452-27.97-313.042-27.97zM768 98.006v29.994l-32 64h-448l-32-64v-29.994c75.31-10.892 162.74-17.128 256-17.128 93.262-0.002 180.69 6.236 256 17.128zM1001.508 678.344c-29.994 29.994-78.622 29.994-108.614 0-25.45-25.448-29.292-64.308-11.552-93.822l-195.322-117.194 38.506 181.716c33.68-7.162 69.17 9.124 84.948 41.47 18.594 38.124 2.762 84.1-35.36 102.694-38.124 18.594-84.102 2.762-102.696-35.362-15.778-32.348-6.76-70.342 19.622-92.472l-118.208-140.696-42.202 168.806c33.41 8.326 58.17 38.522 58.17 74.512 0 42.416-34.384 76.8-76.798 76.8-42.416 0-76.8-34.384-76.8-76.8 0-35.99 24.76-66.186 58.172-74.512l-42.202-168.806-118.208 140.696c26.38 22.13 35.398 60.124 19.622 92.472-18.594 38.124-64.572 53.956-102.696 35.362-38.122-18.594-53.954-64.572-35.36-102.694 15.776-32.348 51.268-48.632 84.948-41.47l38.504-181.716-195.32 117.194c17.74 29.514 13.894 68.374-11.554 93.822-29.992 29.994-78.62 29.994-108.614 0-29.99-29.992-29.99-78.618 0.002-108.612 25.448-25.448 64.308-29.292 93.82-11.554l181.306-302.178h428.756l181.306 302.178c29.512-17.738 68.372-13.894 93.82 11.554 29.994 29.994 29.994 78.622 0.004 108.612z" />
<glyph unicode="&#xe019;" glyph-name="announcement" d="M1024 530.744c0 200.926-58.792 363.938-131.482 365.226 0.29 0.006 0.578 0.030 0.87 0.030h-82.94c0 0-186.802-146.336-467.23-203.754-8.56-45.292-14.030-99.274-14.030-161.502s5.466-116.208 14.030-161.5c280.428-57.418 467.23-203.756 467.23-203.756h82.94c-0.292 0-0.578 0.024-0.87 0.032 72.696 1.288 131.482 164.298 131.482 365.224zM891.646 200.176c-9.542 0-19.868 10.388-25.176 16.582-12.846 14.996-25.22 38.348-35.794 67.532-23.658 65.292-36.694 152.82-36.694 246.458s13.036 181.164 36.694 246.458c10.572 29.184 22.954 52.536 35.794 67.53 5.308 6.198 15.632 16.584 25.176 16.584s19.874-10.39 25.176-16.584c12.85-14.996 25.224-38.344 35.796-67.53 23.66-65.292 36.692-152.82 36.692-246.458 0-93.632-13.032-181.164-36.692-246.458-10.572-29.184-22.952-52.536-35.796-67.532-5.302-6.194-15.628-16.582-25.176-16.582zM259.812 530.744c0 51.95 3.81 102.43 11.052 149.094-47.372-6.554-96.942-10.324-148.34-10.324-67.058 0-67.058 0-67.058 0l-55.466-94.686v-88.17l55.46-94.686c0 0 0 0 67.060 0 51.398 0 100.968-3.774 148.34-10.324-7.236 46.664-11.048 97.146-11.048 149.096zM845.764 690.858c-9.064-48.72-13.874-103.288-13.874-160.114 0-56.828 4.804-111.392 13.874-160.114 47.342 1.174 85.53 72.4 85.53 160.114 0 87.712-38.188 158.942-85.53 160.114zM368.15 317.828l-127.998 24.51 81.842-321.546c4.236-16.634 20.744-25.036 36.686-18.654l118.556 47.452c15.944 6.374 22.328 23.964 14.196 39.084l-123.282 229.154z" />
<glyph unicode="&#xe01a;" glyph-name="announcement2" d="M128 576h-128v-320h128v64l128.018-36.578c-0.004-0.484-0.018-0.968-0.018-1.458v-89.964c0-35.204 28.798-64 64-64h128c35.2 0 64 28.796 64 64v18.286l320-91.43v594.284l-704-201.14v64zM320 265.14l127.856-36.53v-36.61h-127.856v73.14zM896 731.428v-630.858l128-36.57v704z" />
<glyph unicode="&#xe01b;" glyph-name="broadcast" d="M448 192c0 35.346 28.654 64 64 64s64-28.654 64-64c0-35.346-28.654-64-64-64s-64 28.654-64 64zM512 832c-192.052 0-364.322-84.614-481.63-218.572l48.162-42.142c105.578 120.56 260.622 196.714 433.468 196.714s327.89-76.154 433.468-196.714l48.162 42.142c-117.308 133.958-289.576 218.572-481.63 218.572zM512 640c-134.436 0-255.026-59.23-337.142-153l48.164-42.142c70.384 80.374 173.748 131.142 288.978 131.142 115.232 0 218.594-50.768 288.978-131.142l48.164 42.142c-82.116 93.77-202.704 153-337.142 153zM512 448c-76.82 0-145.73-33.846-192.652-87.43l48.164-42.142c35.192 40.188 86.872 65.572 144.488 65.572s109.296-25.384 144.49-65.572l48.162 42.142c-46.922 53.584-115.832 87.43-192.652 87.43z" />
<glyph unicode="&#xe01c;" glyph-name="books" d="M576.234 670.73l242.712 81.432 203.584-606.784-242.712-81.432zM0 64h256v704h-256v-704zM64 640h128v-64h-128v64zM320 64h256v704h-256v-704zM384 640h128v-64h-128v64z" />
<glyph unicode="&#xe01d;" glyph-name="reading" d="M352 800c0 88.366 71.634 160 160 160s160-71.634 160-160c0-88.366-71.634-160-160-160s-160 71.634-160 160zM1009.976 231.98l-256 320c-12.63 15.788-31.212 23.994-49.968 24.008l-0.008 0.012-384.008-0.014c-18.756-0.014-37.338-8.22-49.968-24.004l-256-320c-16.804-21.004-18.68-50.276-4.696-73.254 11.762-19.326 32.628-30.73 54.658-30.73 4.164 0 8.372 0.408 12.564 1.246l179.45 35.888v-229.132h512v229.132l179.45-35.89c4.194-0.838 8.398-1.246 12.562-1.246 22.030 0 42.898 11.406 54.658 30.73 13.986 22.978 12.11 52.25-4.694 73.254zM704 308.466l-51.45 10.292c-34.65 6.936-68.376-15.544-75.308-50.208-6.932-34.66 15.546-68.376 50.208-75.308l76.55-15.31v-49.932l-192-64-192 64v49.932l76.552 15.31c34.66 6.932 57.138 40.648 50.206 75.308-6.932 34.662-40.652 57.128-75.308 50.208l-51.45-10.292v139.534l192-64 192 64v-139.534z" />
<glyph unicode="&#xe01e;" glyph-name="file" d="M704 960h-640v-1024h896v768l-256 256zM896 0h-768v896h576v-192h192v-704z" />
<glyph unicode="&#xe01f;" glyph-name="file-add" d="M896 192v128h-128v-128h-128v-128h128v-128h128v128h128v128zM64 896h576v-192h192v-320h64v320l-256 256h-640v-1024h576v64h-512z" />
<glyph unicode="&#xe020;" glyph-name="file-remove" d="M640 192h384v-128h-384zM64 896h576v-192h192v-320h64v320l-256 256h-640v-1024h576v64h-512z" />
<glyph unicode="&#xe021;" glyph-name="copy" d="M896 704h-256v128l-128 128h-512v-768h384v-256h640v640l-128 128zM64 256v640h384l128-128v-64h-192v-448h-320zM960 0h-512v640h384l128-128v-512z" />
<glyph unicode="&#xe022;" glyph-name="stack" d="M1024 640l-512 256-512-256 512-256 512 256zM512 824.446l368.89-184.446-368.89-184.446-368.892 184.446 368.892 184.446zM824.446 476.222l56.444-28.222-368.89-184.446-368.892 184.446 56.446 28.222-71.554 35.778-128-64 512-256 512 256-128 64zM824.446 284.222l56.444-28.222-368.89-184.446-368.892 184.446 56.446 28.222-71.554 35.778-128-64 512-256 512 256-128 64z" />
<glyph unicode="&#xe023;" glyph-name="folder" d="M448 832l128-128h448v-704h-1024v832z" />
<glyph unicode="&#xe024;" glyph-name="folder2" d="M421.49 768l128-128h410.51v-576h-896v704h357.49M448 832h-448v-832h1024v704h-448l-128 128z" />
<glyph unicode="&#xe025;" glyph-name="folder-add" d="M576 704l-128 128h-448v-832h1024v704h-448zM704 256h-128v-128h-128v128h-128v128h128v128h128v-128h128v-128z" />
<glyph unicode="&#xe026;" glyph-name="folder-remove" d="M576 704l-128 128h-448v-832h1024v704h-448zM704 256h-384v128h384v-128z" />
<glyph unicode="&#xe027;" glyph-name="folder-add2" d="M576 704l-128 128h-448v-832h1024v704h-448zM960 64h-896v704h357.49l128-128h410.51v-576zM576 512h-128v-128h-128v-128h128v-128h128v128h128v128h-128z" />
<glyph unicode="&#xe028;" glyph-name="folder-remove2" d="M576 704l-128 128h-448v-832h1024v704h-448zM960 64h-896v704h357.49l128-128h410.51v-576zM320 384h384v-128h-384z" />
<glyph unicode="&#xe029;" glyph-name="folder-download" d="M576 704l-128 128h-448v-832h1024v704h-448zM512 64l-256 256h192v256h128v-256h192l-256-256z" />
<glyph unicode="&#xe02a;" glyph-name="folder-upload" d="M576 704l-128 128h-448v-832h448v256h-192l256 256 256-256h-192v-256h448v704z" />
<glyph unicode="&#xe02b;" glyph-name="folder-download2" d="M576 704l-128 128h-448v-832h1024v704h-448zM960 64h-896v704h357.49l128-128h410.51v-576zM576 320v192h-128v-192h-192l256-256 256 256z" />
<glyph unicode="&#xe02c;" glyph-name="folder-upload2" d="M576 704l-128 128h-448v-832h1024v704h-448zM960 64h-384v192h192l-256 256-256-256h192v-192h-384v704h357.49l128-128h410.51v-576z" />
<glyph unicode="&#xe02d;" glyph-name="folder3" d="M984.5 704h-945c-26.4 0-43.764-21.18-38.586-47.068l117.672-545.864c5.178-25.888 31.014-47.068 57.414-47.068h672c26.4 0 52.236 21.18 57.414 47.068l117.672 545.864c5.178 25.888-12.186 47.068-38.586 47.068zM896 784c0 26.51-21.49 48-48 48h-432l-32 64h-208c-26.51 0-48-21.49-48-48v-112h768v48z" />
<glyph unicode="&#xe02e;" glyph-name="folder4" d="M984.5 704h-88.5v80c0 26.51-21.49 48-48 48h-432l-32 64h-208c-26.51 0-48-21.49-48-48v-144h-88.5c-26.4 0-43.764-21.18-38.586-47.068l117.672-545.864c5.178-25.888 31.014-47.068 57.414-47.068h672c26.4 0 52.236 21.18 57.414 47.068l117.672 545.864c5.178 25.888-12.186 47.068-38.586 47.068zM192 832h152.446l32-64h455.554v-64h-640v128zM843.594 128h-663.188l-110.372 512h883.932l-110.372-512z" />
<glyph unicode="&#xe02f;" glyph-name="tag" d="M640 960l-640-640 384-384 640 640v384h-384zM800 640c-53.020 0-96 42.98-96 96s42.98 96 96 96 96-42.98 96-96-42.98-96-96-96z" />
<glyph unicode="&#xe030;" glyph-name="tag2" d="M576 960l-576-576 448-448 576 576v448h-448zM832 675.2c-51.252 0-92.798 41.546-92.798 92.8s41.546 92.8 92.798 92.8 92.8-41.546 92.8-92.8-41.548-92.8-92.8-92.8z" />
<glyph unicode="&#xe031;" glyph-name="tag3" d="M576 960l-576-576 448-448 576 576v448h-448zM960 538.51l-512-512-357.49 357.49 512 512h357.49v-357.49zM548 640c0-86.018 69.98-156 156-156s156 69.982 156 156-69.98 156-156 156-156-69.982-156-156zM704 740c55.14 0 100-44.86 100-100s-44.86-100-100-100-100 44.86-100 100 44.86 100 100 100z" />
<glyph unicode="&#xe032;" glyph-name="tag4" d="M576 960l-576-576 320-128 128-320 576 576v448h-448zM832 675.2c-51.252 0-92.798 41.546-92.798 92.8s41.546 92.8 92.798 92.8 92.8-41.546 92.8-92.8-41.548-92.8-92.8-92.8z" />
<glyph unicode="&#xe033;" glyph-name="tag5" d="M768 704h-704c-35.346 0-64-28.654-64-64v-384c0-35.348 28.654-64 64-64h704l256 256-256 256zM704 355.2c-51.252 0-92.8 41.548-92.8 92.8 0 51.25 41.548 92.8 92.8 92.8s92.8-41.548 92.8-92.8c0.002-51.252-41.548-92.8-92.8-92.8z" />
<glyph unicode="&#xe034;" glyph-name="barcode" d="M0 768h128v-640h-128zM192 768h64v-640h-64zM320 768h64v-640h-64zM512 768h64v-640h-64zM768 768h64v-640h-64zM960 768h64v-640h-64zM640 768h32v-640h-32zM448 768h32v-640h-32zM864 768h32v-640h-32z" />
<glyph unicode="&#xe035;" glyph-name="barcode2" d="M0 832h128v-640h-128zM192 832h64v-640h-64zM320 832h64v-640h-64zM512 832h64v-640h-64zM768 832h64v-640h-64zM960 832h64v-640h-64zM640 832h32v-640h-32zM448 832h32v-640h-32zM864 832h32v-640h-32zM0 128h64v-64h-64zM192 128h64v-64h-64zM320 128h64v-64h-64zM640 128h64v-64h-64zM960 128h64v-64h-64zM768 128h128v-64h-128zM448 128h128v-64h-128z" />
<glyph unicode="&#xe036;" glyph-name="ticket" d="M575.996 640l127.998-127.998-255.994-255.994-127.998 127.998zM1001.526 662.496l-73.516 73.516-32.008-32.008c-16.378-16.38-39.010-26.51-64-26.51-49.988 0-90.514 40.522-90.514 90.51 0 25.002 10.14 47.638 26.534 64.018l31.988 31.986-73.518 73.516c-29.968 29.968-79.008 29.968-108.976 0l-595.040-595.038c-29.966-29.968-29.966-79.010 0-108.976l73.52-73.518 31.962 31.964c16.382 16.406 39.030 26.552 64.044 26.552 49.988 0 90.51-40.524 90.51-90.51 0-25.006-10.14-47.64-26.534-64.022l-31.984-31.986 73.516-73.518c29.966-29.966 79.008-29.966 108.976 0l595.040 595.040c29.964 29.976 29.964 79.016 0 108.984zM448.002 128.004l-256 256 384 384 256-256-384-384z" />
<glyph unicode="&#xe037;" glyph-name="cart" d="M128 32c0 53.019 42.981 96 96 96s96-42.981 96-96c0-53.019-42.981-96-96-96s-96 42.981-96 96zM768 32c0 53.019 42.981 96 96 96s96-42.981 96-96c0-53.019-42.981-96-96-96s-96 42.981-96 96zM960 448v384h-832c0 70.692-57.306 128-128 128v-64c35.29 0 64-28.71 64-64l48.074-412.054c-29.294-23.458-48.074-59.5-48.074-99.946 0-70.694 57.308-128 128-128h768v64h-768c-35.346 0-64 28.654-64 64 0 0.22 0.014 0.436 0.016 0.656l831.984 127.344z" />
<glyph unicode="&#xe038;" glyph-name="cart2" d="M128 32c0 53.019 42.981 96 96 96s96-42.981 96-96c0-53.019-42.981-96-96-96s-96 42.981-96 96zM768 32c0 53.019 42.981 96 96 96s96-42.981 96-96c0-53.019-42.981-96-96-96s-96 42.981-96 96zM960 448v384h-832c0 70.692-57.306 128-128 128v-64c35.29 0 64-28.71 64-64l48.074-412.054c-29.294-23.458-48.074-59.5-48.074-99.946 0-70.696 57.308-128 128-128h768v64h-768c-35.346 0-64 28.654-64 64 0 0.218 0.014 0.436 0.016 0.656l831.984 127.344zM135.902 768h760.098v-8h-759.166l-0.932 8zM896 744v-16h-755.432l-1.868 16h757.3zM896 712v-16h-751.698l-1.868 16h753.566zM896 680v-16h-747.964l-1.868 16h749.832zM896 648v-16h-744.232l-1.868 16h746.1zM896 616v-16h-740.498l-1.868 16h742.366zM177.902 408l-1.868 16h204.164l-104.534-16h-97.762zM174.168 440l-1.866 16h416.962l-104.534-16h-310.562zM170.436 472l-1.868 16h629.764l-104.534-16h-523.362zM166.702 504l-1.866 16h731.164v-16h-729.298zM162.968 536l-1.868 16h734.9v-16h-733.032zM159.236 568l-1.868 16h738.632v-16h-736.764z" />
<glyph unicode="&#xe039;" glyph-name="cart3" d="M813.232 320l204.318 420.002-57.55 27.998-31.132-64h-706l-30.866 64h-192.002v-64h151.812l185.194-384h476.226zM448 384h-70.804l-30.866 64h101.67v-64zM704 640h193.732l-62.268-128h-131.464v128zM704 448h100.33l-31.132-64h-69.198v64zM512 640h128v-128h-128v128zM512 448h128v-64h-128v64zM253.732 640h194.268v-128h-132.536l-61.732 128zM320 160c0 53.019 42.981 96 96 96s96-42.981 96-96c0-53.019-42.981-96-96-96s-96 42.981-96 96zM640 160c0 53.019 42.981 96 96 96s96-42.981 96-96c0-53.019-42.981-96-96-96s-96 42.981-96 96z" />
<glyph unicode="&#xe03a;" glyph-name="cart4" d="M320 160c0 53.019 42.981 96 96 96s96-42.981 96-96c0-53.019-42.981-96-96-96s-96 42.981-96 96zM576 160c0 53.019 42.981 96 96 96s96-42.981 96-96c0-53.019-42.981-96-96-96s-96 42.981-96 96zM872.556 768l-46.89-128h-565.072l-68.592 192h-192.002v-64h146.904l160.052-448h469.64l164.118 448h-68.158zM731.882 384h-379.83l-68.592 192h518.758l-70.336-192z" />
<glyph unicode="&#xe03b;" glyph-name="cart-add" d="M320 160c0 53.019 42.981 96 96 96s96-42.981 96-96c0-53.019-42.981-96-96-96s-96 42.981-96 96zM576 160c0 53.019 42.981 96 96 96s96-42.981 96-96c0-53.019-42.981-96-96-96s-96 42.981-96 96zM872.556 768l-140.674-384h-379.83l-160.052 448h-192v-64h146.904l160.052-448h469.64l164.118 448zM512 448h64v128h128v64h-128v128h-64v-128h-128v-64h128z" />
<glyph unicode="&#xe03c;" glyph-name="cart-remove" d="M320 160c0 53.019 42.981 96 96 96s96-42.981 96-96c0-53.019-42.981-96-96-96s-96 42.981-96 96zM576 160c0 53.019 42.981 96 96 96s96-42.981 96-96c0-53.019-42.981-96-96-96s-96 42.981-96 96zM872.556 768l-140.674-384h-379.83l-160.052 448h-192v-64h146.904l160.052-448h469.64l164.118 448zM384 640h320v-64h-320z" />
<glyph unicode="&#xe03d;" glyph-name="cart-checkout" d="M726.628 681.374l-45.254 45.252-169.374-169.372-105.372 105.372-45.254-45.252 150.626-150.628zM320 160c0 53.019 42.981 96 96 96s96-42.981 96-96c0-53.019-42.981-96-96-96s-96 42.981-96 96zM576 160c0 53.019 42.981 96 96 96s96-42.981 96-96c0-53.019-42.981-96-96-96s-96 42.981-96 96zM872.556 768l-140.674-384h-379.83l-160.052 448h-192v-64h146.904l160.052-448h469.64l164.118 448z" />
<glyph unicode="&#xe03e;" glyph-name="basket" d="M812.988 576l-177.842 231.53c3.122 7.54 4.854 15.802 4.854 24.47 0 35.346-28.652 64-64 64-35.346 0-64-28.654-64-64s28.654-64 64-64c2.842 0 5.632 0.204 8.376 0.564l147.912-192.564h-440.574l147.912 192.564c2.742-0.36 5.534-0.564 8.374-0.564 35.346 0 64 28.654 64 64s-28.654 64-64 64-64-28.654-64-64c0-8.668 1.732-16.93 4.854-24.468l-177.842-231.532h-211.012v-128h64l64-512h768l64 512h64v128h-211.012zM320 64h-128v128h128v-128zM320 320h-128v128h128v-128zM576 64h-128v128h128v-128zM576 320h-128v128h128v-128zM832 64h-128v128h128v-128zM832 320h-128v128h128v-128z" />
<glyph unicode="&#xe03f;" glyph-name="basket2" d="M128-64h766.918c0 0 65.082 128 128 512h-1022.918c64-384 128-512 128-512zM736 384h96v-384h-96v384zM554.666 384h96v-384h-96v384zM373.334 384h96v-384h-96v384zM192 384h96v-384h-96v384zM875.536 640l-179.736 224.668c5.212 9.262 8.2 19.946 8.2 31.332 0 35.346-28.654 64-64 64-35.348 0-64-28.654-64-64s28.652-64 64-64c6.37 0 12.518 0.944 18.324 2.676l155.74-194.676h-604.128l155.742 194.676c5.806-1.732 11.952-2.676 18.322-2.676 35.346 0 64 28.654 64 64s-28.654 64-64 64-64-28.654-64-64c0-11.386 2.986-22.068 8.2-31.332l-179.736-224.668h-148.464v-128h1024v128h-148.464z" />
<glyph unicode="&#xe040;" glyph-name="bag" d="M864 640h-160c0 176.73-85.96 320-192 320s-192-143.27-192-320h-160c-17.6 0-32-14.4-32-32v-640c0-17.6 14.4-32 32-32h704c17.6 0 32 14.4 32 32v640c0 17.6-14.4 32-32 32zM512 896c70.694 0 128-114.616 128-256h-256c0 141.384 57.308 256 128 256z" />
<glyph unicode="&#xe041;" glyph-name="coin" d="M512 448v128h128v64h-128v64h-64v-64h-128v-256h128v-128h-128v-64h128v-64h64v64h128.002l-0.002 256h-128zM448 448h-64v128h64v-128zM576.002 256h-64.002v128h64.002v-128zM480 896c-265.096 0-480-214.904-480-480 0-265.098 214.904-480 480-480 265.098 0 480 214.902 480 480 0 265.096-214.902 480-480 480zM480 0c-229.75 0-416 186.25-416 416s186.25 416 416 416 416-186.25 416-416-186.25-416-416-416z" />
<glyph unicode="&#xe042;" glyph-name="support" d="M512 960c-282.77 0-512-229.23-512-512s229.23-512 512-512 512 229.23 512 512-229.23 512-512 512zM320 448c0 106.040 85.96 192 192 192s192-85.96 192-192-85.96-192-192-192-192 85.96-192 192zM925.98 276.524v0l-177.42 73.49c12.518 30.184 19.44 63.276 19.44 97.986s-6.922 67.802-19.44 97.986l177.42 73.49c21.908-52.822 34.020-110.73 34.020-171.476s-12.114-118.654-34.020-171.476v0zM683.478 861.98v0 0l-73.49-177.42c-30.184 12.518-63.276 19.44-97.988 19.44s-67.802-6.922-97.986-19.44l-73.49 177.422c52.822 21.904 110.732 34.018 171.476 34.018 60.746 0 118.654-12.114 171.478-34.020zM98.020 619.476l177.422-73.49c-12.518-30.184-19.442-63.276-19.442-97.986s6.922-67.802 19.44-97.986l-177.42-73.49c-21.906 52.822-34.020 110.73-34.020 171.476s12.114 118.654 34.020 171.476zM340.524 34.020l73.49 177.42c30.184-12.518 63.276-19.44 97.986-19.44s67.802 6.922 97.986 19.44l73.49-177.42c-52.822-21.904-110.73-34.020-171.476-34.020-60.744 0-118.654 12.114-171.476 34.020z" />
<glyph unicode="&#xe043;" glyph-name="phone" d="M914.306 752.704c-126.7 72.028-307.86 79.296-402.164 79.296-0.054-0.048-0.096-0.112-0.132-0.156-0.058 0.046-0.098 0.106-0.154 0.156-94.302 0-275.46-7.276-402.16-79.296-106.534-60.568-109.694-125.418-109.694-170.698v-6.794c0-10.364 8.938-18.836 19.852-18.836h240.292c10.914 0 19.852 8.472 19.852 18.836v22.906c0 57.214 54.712 66.356 84.898 71.21s105.236 9.554 146.96 9.554c0.056 0 0.096 0 0.154 0 0.040 0 0.080 0 0.132 0 41.726 0 116.768-4.702 146.96-9.554 30.188-4.86 84.898-14 84.898-71.21v-22.906c0-10.364 8.938-18.836 19.856-18.836h240.29c10.918 0 19.856 8.472 19.856 18.836v6.794c-0.002 45.28-3.162 110.13-109.696 170.698zM512.012 563.584c-56.748 0-174.896 8.164-234.922-64.622-60.044-72.768-210.18-434.962-76.294-434.962 133.912 0 250.916 0 311.212 0 60.272 0 177.296 0 311.19 0 133.89 0-16.25 362.194-76.274 434.962-60.036 72.786-178.19 64.622-234.912 64.622zM512 160c-88.366 0-160 71.634-160 160s71.634 160 160 160 160-71.634 160-160-71.634-160-160-160z" />
<glyph unicode="&#xe044;" glyph-name="phone2" d="M643.576 217.708c-22.376-12.472-40.35-4.128-65.528 9.144-22.92 17.496-90.804 70.876-162.452 142.376-52.312 66.168-92.324 128.576-110.75 158.586-1.25 3.32-1.888 5.264-1.888 5.264-10.794 26.952-17.542 45.84-2.648 67.042 13.708 19.454 19 24.766 36.48 40.216l-175.58 260.248c-21.208-15.456-54.036-50.212-81.018-88.756-25.076-36.634-46.308-77.174-52.098-106.11 30.59-110.234 104.516-315.792 241.166-462.65l-0.042-0.616c131.46-162.056 340.33-262.86 451.142-306.452 29.358 2.77 71.876 19.688 110.912 40.808 41.196 22.83 79.134 51.89 96.658 71.37l-240.576 201.658c-17.194-15.82-22.996-20.508-43.778-32.128zM411.22 702.684c14.482 10.604 10.626 29.888 3.852 40.49l-133.158 203.826c-8.688 10.582-26.792 16.128-42.504 11.158l-54.866-36.762 176.068-259.758 50.608 41.046zM985.898 164.308l-188.946 153.576c-9.86 7.836-28.626 13.676-40.65 0.376l-46.092-46.1 240.094-202.030 42.272 50.714c6.57 15.128 2.934 33.714-6.678 43.464z" />
<glyph unicode="&#xe045;" glyph-name="phone3" d="M704 320c-64-64-64-128-128-128s-128 64-192 128-128 128-128 192 64 64 128 128-128 256-192 256-192-192-192-192c0-128 131.5-387.5 256-512s384-256 512-256c0 0 192 128 192 192s-192 256-256 192z" />
<glyph unicode="&#xe046;" glyph-name="phone4" d="M192.524 847.608c7.032-2.15 26.722-11.462 56.572-36.68 29.248-24.708 56.89-55.066 75.84-83.29 20.808-30.992 24.324-49.292 23.966-54.844-20.114-19.826-40.336-32.324-59.908-44.42-19.108-11.81-37.158-22.964-52.014-39.254-19.23-21.086-28.98-47.032-28.98-77.12 0-83.882 72.218-156.1 142.058-225.942 69.842-69.84 142.060-142.058 225.942-142.058 30.088 0 56.034 9.75 77.12 28.98 16.292 14.856 27.446 32.902 39.256 52.014 12.088 19.556 24.578 39.772 44.382 59.874 0.192 0.008 0.412 0.016 0.664 0.016 17.376 0 57.24-20.054 103.704-64.086 19.814-18.778 38.124-39.552 51.558-58.504 12.426-17.53 17.434-28.966 18.92-33.782-2.682-6.484-16.892-33.256-83.79-88.148-29.196-23.956-57.962-44.658-73.844-55.764-53.486 4.332-134.73 31.904-221.738 75.608-96.31 48.376-186.886 110.332-242.292 165.734-55.406 55.404-117.362 145.98-165.736 242.292-43.7 87.008-71.272 168.26-75.604 221.744 11.008 15.75 31.468 44.184 55.31 73.284 55.23 67.41 82.132 81.67 88.614 84.346M192 896c-64 0-192-192-192-192 0-128 131.5-387.5 256-512s384-256 512-256c0 0 192 128 192 192 0 55.062-142.124 204.878-222.578 204.878-13.058 0-24.484-3.944-33.422-12.878-64-64-64-128-128-128s-128 64-192 128-128 128-128 192 64 64 128 128-128 256-192 256v0z" />
<glyph unicode="&#xe047;" glyph-name="address" d="M960 704c35.346 0 64 28.654 64 64v128h-128v64h-832c-35.2 0-64-28.798-64-64v-896c0-35.2 28.796-64 64-64h832v256h64c35.346 0 64 28.654 64 64v128h-128v64h64c35.346 0 64 28.654 64 64v128h-128v64h64zM576 666.51c49.984 0 90.51-40.524 90.51-90.51s-40.526-90.51-90.51-90.51c-49.988 0-90.51 40.524-90.51 90.51s40.522 90.51 90.51 90.51zM256 0h-64v896h64v-896zM417.312 256c0 192 106.544 192 159.818 192 53.272 0 159.816 0 159.816-192h-319.634z" />
<glyph unicode="&#xe048;" glyph-name="address2" d="M64 896h96v-160h-96zM192 960v-1024h768v1024h-768zM384 192c0 106.040 85.96 256 192 256-70.692 0-128 57.308-128 128s57.308 128 128 128c70.694 0 128-57.308 128-128s-57.306-128-128-128 192-149.96 192-256h-384zM64 704h96v-160h-96zM64 512h96v-160h-96zM64 320h96v-160h-96zM64 128h96v-160h-96z" />
<glyph unicode="&#xe049;" glyph-name="notebook" d="M898.36 896h-770.36v-128h-93.64c-17.6 0-34.36-12.528-34.36-30.128v-64c0-17.6 16.76-33.872 34.36-33.872h93.64v-64h-93.64c-17.6 0-34.36-12.528-34.36-30.128v-64c0-17.6 16.76-33.872 34.36-33.872h93.64v-64h-93.64c-17.6 0-34.36-12.528-34.36-30.128v-64c0-17.598 16.76-33.872 34.36-33.872h93.64v-64h-93.64c-17.6 0-34.36-12.528-34.36-30.128v-64c0-17.6 16.76-33.872 34.36-33.872h93.64v-128h770.36c35.348 0 61.64 30.526 61.64 65.872v832c0 35.346-26.292 62.128-61.64 62.128zM320 0h-128v64h34.36c17.6 0 29.64 16.272 29.64 33.872v64c0 17.602-12.042 30.128-29.64 30.128h-34.36v64h34.36c17.6 0 29.64 16.272 29.64 33.872v64c0 17.602-12.042 30.128-29.64 30.128h-34.36v64h34.36c17.6 0 29.64 16.272 29.64 33.872v64c0 17.602-12.042 30.128-29.64 30.128h-34.36v64h34.36c17.6 0 29.64 16.272 29.64 33.872v64c0 17.602-12.040 30.128-29.64 30.128h-34.36v64h128v-832z" />
<glyph unicode="&#xe04a;" glyph-name="mail" d="M651.216 429.636l372.784-257.108v591.894zM0 764.422v-591.894l372.776 257.144zM512 304.618l-89.002 79.91-422.998-256.528h1024l-423.010 256.528zM993.28 768h-962.56l481.28-361.852z" />
<glyph unicode="&#xe04b;" glyph-name="mail2" d="M651.214 237.9l372.786-257.11v591.896zM0 572.686v-591.896l372.776 257.146zM512 112.88l-89.002 79.91-422.998-256.526h1024l-423.012 256.526zM30.718 576h962.562l-481.282 361.852z" />
<glyph unicode="&#xe04c;" glyph-name="mail3" d="M0 768v-640h1024v640h-1024zM512 334.844l-471.25 336.606 46.5 65.1 424.75-303.394 424.75 303.394 46.5-65.1-471.25-336.606z" />
<glyph unicode="&#xe04d;" glyph-name="mail4" d="M0 768v-640h1024v640h-1024zM885.334 704l-373.334-280-373.334 280h746.668zM64 192v488l448-336 448 336v-488h-896z" />
<glyph unicode="&#xe04e;" glyph-name="mail5" d="M0 768v-640h1024v640h-1024zM896 704l-256-256h-256l-256 256h768zM64 704l256-256-256-256v512zM128 192l192 192h384l192-192h-768zM960 192l-256 256 256 256v-512z" />
<glyph unicode="&#xe04f;" glyph-name="location" d="M512 960c-163.34 0-295.742-132.404-295.742-295.74 0-4.028 0.122-8.202 0.32-12.448 0.1-2.468 0.252-4.908 0.418-7.364 0.102-1.558 0.226-3.148 0.36-4.742 0.208-2.608 0.42-5.22 0.7-7.812 24.528-238.908 293.946-695.894 293.946-695.894s269.41 456.984 293.94 695.896c0.286 2.59 0.49 5.206 0.702 7.81 0.13 1.594 0.262 3.184 0.366 4.742 0.168 2.458 0.316 4.894 0.42 7.366 0.194 4.248 0.314 8.422 0.314 12.448-0.012 163.336-132.412 295.738-295.744 295.738zM640 640c0-70.694-57.308-128-128-128s-128 57.306-128 128 57.308 128 128 128c70.692 0 128-57.306 128-128z" />
<glyph unicode="&#xe050;" glyph-name="location2" d="M512 960c-212.078 0-384-171.922-384-384 0-384 384-640 384-640s384 256 384 640c0 212.078-171.922 384-384 384zM512 512c-70.692 0-128 57.308-128 128s57.308 128 128 128c70.694 0 128-57.308 128-128s-57.306-128-128-128z" />
<glyph unicode="&#xe051;" glyph-name="location3" d="M512 960c-212.078 0-384-171.922-384-384 0-384 384-640 384-640s384 256 384 640c0 212.078-171.922 384-384 384zM645.982 167.254c-49.436-58.186-99.508-102.9-133.982-130.97-34.474 28.070-84.548 72.786-133.982 130.97-50.238 59.13-90.060 120.502-118.362 182.408-34.278 74.972-51.656 151.124-51.656 226.338 0 81.202 31.622 157.542 89.040 214.96s133.758 89.040 214.96 89.040 157.542-31.622 214.96-89.040 89.040-133.758 89.040-214.96c0-75.214-17.378-151.366-51.654-226.338-28.304-61.906-68.126-123.278-118.364-182.408zM512 736c52.936 0 96-43.066 96-96s-43.064-96-96-96c-52.934 0-96 43.066-96 96s43.066 96 96 96M512 800c-88.366 0-160-71.634-160-160s71.634-160 160-160c88.368 0 160 71.634 160 160s-71.632 160-160 160v0z" />
<glyph unicode="&#xe052;" glyph-name="location4" d="M305.924 637.416c0 113.128 92.284 204.81 206.068 204.81s206.086-91.682 206.086-204.81c0-113.128-92.302-204.738-206.086-204.738-113.784 0.002-206.068 91.684-206.068 204.738zM161.666 611.876c0-85.674 104.554-266.292 104.554-266.292l245.772-409.586 231.682 409.586c0 0 118.664 181.908 118.664 266.292 0 192.268-156.86 348.124-350.346 348.124-193.468 0-350.326-155.858-350.326-348.124z" />
<glyph unicode="&#xe053;" glyph-name="map" d="M0 0l320 128v768l-320-128zM352 128l320-128v768l-320 128zM704 768v-768l320 128v768z" />
<glyph unicode="&#xe054;" glyph-name="map2" d="M640 768l-320 192-320-128.562v-831.438l320 128 320-192 384 192v832l-384-192zM336 875.762l288-172.8v-682.726l-288 172.798v682.728zM64 788.178l240 96.422v-694.068l-240-96.002v693.648zM960 167.554l-304-152v688.892l304 152v-688.892z" />
<glyph unicode="&#xe055;" glyph-name="history" d="M512 704v-320h256v64h-192v256zM576 896c-247.424 0-448-200.576-448-448h-128l160-192 160 192h-128c0 212.078 171.922 384 384 384s384-171.922 384-384c0-212.078-171.922-384-384-384-21.808 0-43.184 1.846-64 5.34v-64.77c20.906-2.99 42.268-4.57 64-4.57 247.424 0 448 200.576 448 448s-200.576 448-448 448z" />
<glyph unicode="&#xe056;" glyph-name="clock" d="M480 896c-265.096 0-480-214.904-480-480 0-265.098 214.904-480 480-480 265.098 0 480 214.902 480 480 0 265.096-214.902 480-480 480zM480 0c-229.75 0-416 186.25-416 416s186.25 416 416 416 416-186.25 416-416-186.25-416-416-416zM512 506.516v261.484h-64v-261.484c-37.282-13.18-64-48.72-64-90.516 0-53.020 42.98-96 96-96 41.796 0 77.334 26.718 90.516 64h197.484v64h-197.484c-9.64 27.27-31.244 48.874-58.516 58.516z" />
<glyph unicode="&#xe057;" glyph-name="clock2" d="M480 896c-265.096 0-480-214.904-480-480 0-265.098 214.904-480 480-480 265.098 0 480 214.902 480 480 0 265.096-214.902 480-480 480zM768 384h-197.484c-13.182-37.282-48.718-64-90.516-64-53.020 0-96 42.98-96 96 0 41.796 26.718 77.334 64 90.516v261.484h64v-261.484c27.272-9.642 48.876-31.246 58.516-58.516h197.484v-64z" />
<glyph unicode="&#xe058;" glyph-name="wrist-watch" d="M896 448c0 167.192-106.862 309.4-256 362.12v149.88h-256v-149.88c-149.138-52.72-256-194.928-256-362.12s106.862-309.4 256-362.12v-149.88h256v149.88c149.138 52.72 256 194.928 256 362.12zM512 128c-85.476 0-165.834 33.286-226.274 93.724-60.44 60.442-93.726 140.802-93.726 226.276s33.286 165.834 93.726 226.274c60.44 60.44 140.8 93.726 226.274 93.726s165.834-33.286 226.276-93.726c60.438-60.44 93.724-140.798 93.724-226.274 0-85.474-33.286-165.834-93.724-226.276-60.442-60.438-140.802-93.724-226.276-93.724zM512 704h-64v-320h256v64h-192z" />
<glyph unicode="&#xe059;" glyph-name="calendar" d="M320 576h128v-128h-128zM512 576h128v-128h-128zM704 576h128v-128h-128zM128 192h128v-128h-128zM320 192h128v-128h-128zM512 192h128v-128h-128zM320 384h128v-128h-128zM512 384h128v-128h-128zM704 384h128v-128h-128zM128 384h128v-128h-128zM832 960v-64h-128v64h-448v-64h-128v64h-128v-1024h960v1024h-128zM896 0h-832v704h832v-704z" />
<glyph unicode="&#xe05a;" glyph-name="calendar2" d="M896 832h-96v-32c0-35.29-28.71-64-64-64s-64 28.71-64 64v32h-320v-32c0-35.29-28.71-64-64-64s-64 28.71-64 64v32h-96c-35.2 0-64-28.8-64-64v-704c0-35.2 28.8-64 64-64h768c35.2 0 64 28.8 64 64v704c0 35.2-28.8 64-64 64zM896 64.116c-0.034-0.040-0.076-0.082-0.116-0.116h-767.77c-0.040 0.034-0.082 0.076-0.114 0.116v575.884h768v-575.884zM288 768c17.672 0 32 14.328 32 32v128c0 17.672-14.328 32-32 32s-32-14.328-32-32v-128c0-17.672 14.328-32 32-32zM736 768c17.672 0 32 14.328 32 32v128c0 17.672-14.328 32-32 32s-32-14.328-32-32v-128c0-17.672 14.328-32 32-32zM576 576h-320v-64h256v-128h-256v-64h256v-128h-256v-64h320zM704 128h64v448h-128v-64h64zM872-24h-720c-35.2 0-64 20.8-64 56v-32c0-35.2 28.8-64 64-64h720c35.2 0 64 28.8 64 64v32c0-35.2-28.8-56-64-56z" />
<glyph unicode="&#xe05b;" glyph-name="printer" d="M1020.45 191.902l-24.898 448.196c-1.954 35.146-32.352 63.902-67.552 63.902h-160v256h-512v-256h-160c-35.202 0-65.598-28.756-67.55-63.902l-24.9-448.196c-1.952-35.146 25.25-63.902 60.45-63.902h140.8l-76.8-192h768l-76.8 192h140.8c35.2 0 62.4 28.756 60.45 63.902zM320 896h384v-192h-384v192zM222.53 0l76.8 192h425.34l76.8-192h-578.94zM896 512h-64v128h64v-128z" />
<glyph unicode="&#xe05c;" glyph-name="printer2" d="M256 896h512v-128h-512zM960 704h-896c-35.2 0-64-28.8-64-64v-320c0-35.2 28.796-64 64-64h192v-256h512v256h192c35.2 0 64 28.8 64 64v320c0 35.2-28.8 64-64 64zM704 64h-384v320h384v-320zM974.4 608c0-25.626-20.774-46.4-46.398-46.4-25.626 0-46.402 20.774-46.402 46.4s20.776 46.4 46.402 46.4c25.626 0 46.398-20.774 46.398-46.4z" />
<glyph unicode="&#xe05d;" glyph-name="screen" d="M0 896v-640h1024v640h-1024zM960 320h-896v512h896v-512zM672 192h-320l-32-128-64-64h512l-64 64z" />
<glyph unicode="&#xe05e;" glyph-name="screen2" d="M0 896v-640h1024v640h-1024zM960 320h-896v512h896v-512zM672 192h-320l-32-128-64-64h512l-64 64zM96 504h832v-16h-832zM96 536h832v-16h-832zM96 472h832v-16h-832zM96 568h832v-16h-832zM96 440h832v-16h-832zM96 376h832v-16h-832zM96 408h832v-16h-832zM96 760h832v-16h-832zM96 600h832v-16h-832zM96 728h832v-16h-832zM96 792h832v-16h-832zM96 632h832v-16h-832zM96 664h832v-16h-832zM96 696h832v-16h-832z" />
<glyph unicode="&#xe05f;" glyph-name="laptop" d="M896 256v512c0 35.2-28.8 64-64 64h-640c-35.2 0-64-28.8-64-64v-512h-128v-192h1024v192h-128zM640 128h-256v64h256v-64zM832 256h-640v511.886c0.034 0.040 0.076 0.082 0.114 0.114h639.77c0.040-0.034 0.082-0.076 0.116-0.116v-511.884z" />
<glyph unicode="&#xe060;" glyph-name="mobile" d="M768 960h-576c-35.2 0-64-28.798-64-64v-896c0-35.2 28.798-64 64-64h576c35.2 0 64 28.8 64 64v896c0 35.202-28.8 64-64 64zM480-17.782c-27.492 0-49.782 22.29-49.782 49.782s22.29 49.782 49.782 49.782 49.782-22.29 49.782-49.782-22.29-49.782-49.782-49.782zM768 128h-576v704h576v-704z" />
<glyph unicode="&#xe061;" glyph-name="tablet" d="M832 960h-640c-35.2 0-64-28.8-64-64v-896c0-35.2 28.8-64 64-64h640c35.2 0 64 28.8 64 64v896c0 35.2-28.8 64-64 64zM512-32c-17.674 0-32 14.326-32 32s14.326 32 32 32 32-14.326 32-32-14.326-32-32-32zM768 64h-512v768h512v-768z" />
<glyph unicode="&#xe062;" glyph-name="mobile2" d="M672 960c-17.674 0-32-14.326-32-32v-96h-352c-17.672 0-32-14.326-32-32v-832c0-17.672 14.328-32 32-32h384c17.674 0 32 14.328 32 32v960c0 17.674-14.326 32-32 32zM384 0h-64v64h64v-64zM384 128h-64v64h64v-64zM384 256h-64v64h64v-64zM512 0h-64v64h64v-64zM512 128h-64v64h64v-64zM512 256h-64v64h64v-64zM640 0h-64v64h64v-64zM640 128h-64v64h64v-64zM640 256h-64v64h64v-64zM640 416c0-17.672-14.326-32-32-32h-256c-17.672 0-32 14.328-32 32v320c0 17.674 14.328 32 32 32h256c17.674 0 32-14.326 32-32v-320z" />
<glyph unicode="&#xe063;" glyph-name="disk" d="M896 960h-896v-1024h1024v896l-128 128zM512 832h128v-256h-128v256zM896 64h-768v768h64v-320h576v320h74.978l53.022-53.018v-714.982z" />
<glyph unicode="&#xe064;" glyph-name="cd" d="M512 543.504c-52.662 0-95.504-42.842-95.504-95.504s42.842-95.504 95.504-95.504c52.662 0 95.504 42.842 95.504 95.504s-42.842 95.504-95.504 95.504zM512 960c-282.77 0-512-229.23-512-512s229.23-512 512-512 512 229.23 512 512-229.23 512-512 512zM878.884 712.032c-3.846 5.334-7.8 10.6-11.884 15.774 4.086-5.174 8.040-10.438 11.884-15.774zM853.516 744.048c-2.28 2.626-4.592 5.232-6.936 7.812 2.348-2.578 4.654-5.186 6.936-7.812zM845.86 752.646c-2.248 2.466-4.52 4.916-6.832 7.338 2.312-2.42 4.58-4.872 6.832-7.338zM201.022 119.992c2.786-2.642 5.604-5.236 8.45-7.796-2.842 2.562-5.666 5.154-8.45 7.796zM209.852 111.844c2.936-2.636 5.904-5.232 8.898-7.79-2.994 2.558-5.964 5.15-8.898 7.79zM272.4 64.64c-3.824 2.392-7.606 4.852-11.356 7.36h15.956l-4.6-7.36zM287 88h-48.34c3.598-2.736 7.232-5.42 10.904-8.046-10.57 7.548-20.822 15.57-30.75 24.046h78.186l-10-16zM261.008 72.026c-3.784 2.53-7.524 5.126-11.23 7.772 3.704-2.652 7.446-5.244 11.23-7.772zM307 120h-105.986c-2.906 2.758-5.786 5.546-8.626 8.388-4.884 4.884-9.61 9.89-14.244 14.962 2.252-2.472 4.528-4.928 6.844-7.352h132.012l-10-15.998zM170.446 151.996c2.292-2.64 4.618-5.258 6.972-7.854-2.36 2.592-4.68 5.214-6.972 7.854zM327 152h-156.558c-8.944 10.302-17.39 20.96-25.326 31.964 3.894-5.402 7.896-10.73 12.034-15.964h179.85l-10-16zM347 184h-201.908c-5.74 7.964-11.248 16.086-16.452 24.4 1.768-2.826 3.594-5.616 5.426-8.4h222.934l-10-16zM367 216h-226.202l25.602 16h210.6l-10-16zM387 248h-195l25.6 16h179.4l-10-16zM847.912 657.946l9.688 6.054h-210.6l-10-16h195l-25.6-16h-179.4l-10-16h163.798l-25.598-16h-143.092c7.33-4.836 14.292-10.184 20.828-16h96.664l-25.6-16h-55.186c4.468-5.090 8.658-10.43 12.542-16h17.042l-12.044-7.53c17.52-27.97 27.658-61.034 27.658-96.472 0-100.52-81.488-182.006-182.012-182.006-35.436 0-68.5 10.136-96.47 27.654l-8.53-13.646h-163.8l25.6 16h143.092c-7.33 4.836-14.29 10.184-20.828 16h-96.664l63.248 39.53c-17.518 27.968-27.658 61.034-27.658 96.47 0 100.52 81.488 182.006 182.010 182.006 35.438 0 68.5-10.136 96.468-27.654l143.132 229.008c7.698-4.818 15.234-9.884 22.63-15.162-3.718 2.66-7.476 5.262-11.276 7.802h-15.954l-10-16h48.34c-3.608 2.744-7.252 5.434-10.932 8.068 10.58-7.556 20.842-15.584 30.78-24.068h-78.188l-10-16h105.984c-2.776 2.634-5.586 5.222-8.422 7.774 5.796-5.232 11.492-10.606 17.048-16.162 2.508-2.506 4.96-5.056 7.402-7.612h-132.012l-10-16h156.558c4.552-5.246 8.998-10.57 13.292-16h-179.85l-10-16h201.908c5.74-7.964 11.246-16.086 16.452-24.4l-47.448-29.654zM805.268 791.93c2.986-2.552 5.95-5.138 8.876-7.772-2.93 2.632-5.89 5.22-8.876 7.772zM667 696l-10-16h226.2l12.16 7.6c-1.77 2.826-3.594 5.616-5.426 8.4h-222.934zM345.6 344l-25.6-16h55.186c-4.468 5.090-8.658 10.43-12.544 16h-17.042z" />
<glyph unicode="&#xe065;" glyph-name="comments" d="M511.986 943.926c-282.774 0-511.984-173.078-511.984-386.558 0-166.782 139.902-308.938 335.926-363.13 2.876-16.208 6.5-39.292 6.5-53.574 0-67.25-25.734-131.036-71.576-188.59 70.888 29.856 170.95 125.796 232.946 218.864 2.734-0.032 5.458-0.168 8.19-0.168 282.8 0 512.014 173.078 512.014 386.598 0.002 213.48-229.212 386.558-512.016 386.558z" />
<glyph unicode="&#xe066;" glyph-name="comments2" d="M1024 352c0 63.968-52.564 119.162-128.518 144.766-7.636-116.364-102.286-216.458-238.522-267.87 25.306-15.018 55.302-26.144 88.206-32.058 23.768-55.538 61.362-108.872 107.466-143.86-24.936 48.946-26.39 97.888-17.648 140.968 107.092 12 189.016 78.19 189.016 158.054zM832 512c0 141.384-171.922 256-384 256-212.076 0-384-114.616-384-256 0-105.274 95.328-195.69 231.562-235.018 21.32-52.728 33.336-122.328-2.124-191.934 53.89 40.896 96.162 106.848 118.292 172.096 11.944-0.746 24.036-1.144 36.27-1.144 212.078 0 384 114.616 384 256z" />
<glyph unicode="&#xe067;" glyph-name="comments3" d="M960 832h-896c-35.2 0-64-28.8-64-64v-448c0-35.2 28.8-64 64-64h128v-192l144 192h624c35.2 0 64 28.8 64 64v448c0 35.2-28.8 64-64 64z" />
<glyph unicode="&#xe068;" glyph-name="comments4" d="M960 832h-896c-35.2 0-64-28.8-64-64v-448c0-35.2 28.8-64 64-64h128v-192l144 192h624c35.2 0 64 28.8 64 64v448c0 35.2-28.8 64-64 64zM320 448h-128v128h128v-128zM576 448h-128v128h128v-128zM832 448h-128v128h128v-128z" />
<glyph unicode="&#xe069;" glyph-name="comments5" d="M960 832h-896c-35.2 0-64-28.8-64-64v-448c0-35.2 28.8-64 64-64h128v-192l144 192h624c35.2 0 64 28.8 64 64v448c0 35.2-28.8 64-64 64zM960 320h-656l-48-64v64h-192v448h896v-448zM512 384h64v128h128v64h-128v128h-64v-128h-128v-64h128z" />
<glyph unicode="&#xe06a;" glyph-name="comments6" d="M960 832h-896c-35.2 0-64-28.8-64-64v-448c0-35.2 28.8-64 64-64h128v-192l144 192h624c35.2 0 64 28.8 64 64v448c0 35.2-28.8 64-64 64zM704 512h-128v-128h-64v128h-128v64h128v128h64v-128h128v-64z" />
<glyph unicode="&#xe06b;" glyph-name="comments7" d="M960 832h-896c-35.2 0-64-28.8-64-64v-448c0-35.2 28.8-64 64-64h128v-192l144 192h624c35.2 0 64 28.8 64 64v448c0 35.2-28.8 64-64 64zM960 320h-656l-48-64v64h-192v448h896v-448zM448 384l96 96 96-96 64 64-96 96 96 96-64 64-96-96-96 96-64-64 96-96-96-96z" />
<glyph unicode="&#xe06c;" glyph-name="comments8" d="M960 832h-896c-35.2 0-64-28.8-64-64v-448c0-35.2 28.798-64 64-64h128v-192l144 192h624c35.2 0 64 28.8 64 64v448c0 35.2-28.8 64-64 64zM704 448l-64-64-96 96-96-96-64 64 96 96-96 96 64 64 96-96 96 96 64-64-96-96 96-96z" />
<glyph unicode="&#xe06d;" glyph-name="comments9" d="M960 832h-896c-35.2 0-64-28.8-64-64v-448c0-35.2 28.8-64 64-64h128v-192l144 192h624c35.2 0 64 28.8 64 64v448c0 35.2-28.8 64-64 64zM960 320h-656l-48-64v64h-192v448h896v-448zM192 704h640v-64h-640zM192 576h512v-64h-512zM192 448h384v-64h-384z" />
<glyph unicode="&#xe06e;" glyph-name="user" d="M622.826 257.264c-22.11 3.518-22.614 64.314-22.614 64.314s64.968 64.316 79.128 150.802c38.090 0 61.618 91.946 23.522 124.296 1.59 34.054 48.96 267.324-190.862 267.324s-192.45-233.27-190.864-267.324c-38.094-32.35-14.57-124.296 23.522-124.296 14.158-86.486 79.128-150.802 79.128-150.802s-0.504-60.796-22.614-64.314c-71.22-11.332-337.172-128.634-337.172-257.264h896c0 128.63-265.952 245.932-337.174 257.264z" />
<glyph unicode="&#xe06f;" glyph-name="user-add" d="M896 384v128h-128v-128h-128v-128h128v-128h128v128h128v128zM768 114.514c-83.366 77.146-224.236 134.962-273.174 142.75-22.112 3.518-22.616 64.314-22.616 64.314s64.968 64.316 79.128 150.802c38.090 0 61.618 91.946 23.522 124.296 1.594 34.054 48.962 267.324-190.86 267.324s-192.45-233.27-190.864-267.324c-38.094-32.35-14.57-124.296 23.522-124.296 14.158-86.486 79.128-150.802 79.128-150.802s-0.504-60.796-22.614-64.314c-48.936-7.788-189.808-65.604-273.172-142.75v-114.514h768v114.514z" />
<glyph unicode="&#xe070;" glyph-name="user-remove" d="M640 384h384v-128h-384zM768 114.514c-83.366 77.146-224.236 134.962-273.174 142.75-22.112 3.518-22.616 64.314-22.616 64.314s64.968 64.316 79.128 150.802c38.090 0 61.618 91.946 23.522 124.296 1.594 34.054 48.962 267.324-190.86 267.324s-192.45-233.27-190.864-267.324c-38.094-32.35-14.57-124.296 23.522-124.296 14.158-86.486 79.128-150.802 79.128-150.802s-0.504-60.796-22.614-64.314c-48.936-7.788-189.808-65.604-273.172-142.75v-114.514h768v114.514z" />
<glyph unicode="&#xe071;" glyph-name="users" d="M734.994 154.626c-18.952 2.988-19.384 54.654-19.384 54.654s55.688 54.656 67.824 128.152c32.652 0 52.814 78.138 20.164 105.628 1.362 28.94 41.968 227.176-163.598 227.176-205.564 0-164.958-198.236-163.598-227.176-32.654-27.49-12.488-105.628 20.162-105.628 12.134-73.496 67.826-128.152 67.826-128.152s-0.432-51.666-19.384-54.654c-61.048-9.632-289.006-109.316-289.006-218.626h768c0 109.31-227.958 208.994-289.006 218.626zM344.054 137.19c44.094 27.15 97.626 52.308 141.538 67.424-15.752 22.432-33.294 52.936-44.33 89.062-15.406 12.566-27.944 30.532-35.998 52.602-8.066 22.104-11.122 46.852-8.608 69.684 1.804 16.392 6.478 31.666 13.65 45.088-4.35 46.586-7.414 138.034 52.448 204.732 23.214 25.866 52.556 44.46 87.7 55.686-6.274 64.76-39.16 140.77-166.454 140.77-205.564 0-164.958-198.236-163.598-227.176-32.654-27.49-12.488-105.628 20.162-105.628 12.134-73.496 67.826-128.152 67.826-128.152s-0.432-51.666-19.384-54.654c-61.048-9.634-289.006-109.318-289.006-218.628h329.596c4.71 3.074 9.506 6.14 14.458 9.19z" />
<glyph unicode="&#xe072;" glyph-name="users2" d="M305.966 376c-0.986-5.524-2.376-11.15-4.328-16h99.358c-1.376 5.262-2.49 10.612-3.324 16h-91.706zM18.798 184c-3.448-5.276-6.49-10.612-9.058-16h389.972c11.278 5.642 22.65 11.016 33.892 16h-414.806zM82.29 248c-6.904-5.198-13.554-10.538-19.89-16h405.804c-2.912 5.098-5.78 10.438-8.56 16h-377.354zM276.57 344c-12.812-3.22-29.36-8.664-48.008-16h184.896c-2.718 5.042-5.166 10.382-7.322 16h-129.566zM130.416 280c-8.632-5.116-17.17-10.456-25.5-16h347.286c-2.234 5.182-4.372 10.51-6.364 16h-315.422zM3.592 152c-1.552-5.298-2.612-10.634-3.15-16h341.712c0.636 0.396 1.256 0.792 1.898 1.19 8.158 5.022 16.64 9.974 25.322 14.81h-365.782zM30.64 200h442.134c4.34 1.616 8.634 3.174 12.818 4.614-2.518 3.586-5.084 7.398-7.658 11.386h-432.776c-5.204-5.242-10.050-10.584-14.518-16zM248.558 808h270.906c-4.35 5.636-9.26 10.996-14.788 16h-241.338c-5.528-5.004-10.43-10.366-14.78-16zM216.804 712h309.132c7.83 3.584 16 6.748 24.518 9.468-0.208 2.166-0.452 4.344-0.724 6.532h-331.462c-0.672-5.408-1.148-10.754-1.464-16zM159.026 296h279.494c-5.334 4.682-10.29 10.042-14.808 16h-232.388c-10.57-4.91-21.408-10.254-32.298-16zM267.698 456h140.074c0.808 1.71 1.652 3.394 2.538 5.050-0.318 3.41-0.626 7.086-0.906 10.95h-150.13c2.7-5.598 5.534-10.94 8.424-16zM224.708 536c4.752-4.138 10.11-6.566 15.856-6.566 0.526-3.186 1.162-6.322 1.842-9.434h166.276c0.254 5.222 0.628 10.558 1.162 16h-185.136zM217.602 664c0.496-6.036 1.056-11.426 1.55-16h229.506c3.832 5.458 8.016 10.8 12.568 16h-243.624zM216.282 696c-0.028-5.558 0.096-10.906 0.312-16h260.36c6.434 5.796 13.252 11.128 20.448 16h-281.12zM224.756 760c-1.552-5.312-2.848-10.66-3.916-16h326.31c-1.068 5.34-2.364 10.688-3.916 16h-318.478zM238.012 792c-2.912-5.206-5.458-10.556-7.678-16h307.34c-2.218 5.444-4.762 10.794-7.672 16h-291.99zM396.018 408h-93.912c3.88-4.352 6.284-6.718 6.284-6.718s-0.036-3.756-0.45-9.282h88.088c-0.282 5.37-0.292 10.72-0.010 16zM326.728 856c-15.862-3.83-29.512-9.286-41.244-16h197.056c-11.714 6.708-25.332 12.17-41.166 16h-114.646zM277.566 440c3.936-5.942 7.792-11.296 11.38-16h108.87c0.942 5.486 2.192 10.834 3.778 16h-124.028zM408.256 504h-161.644c1.692-5.49 3.592-10.826 5.64-16h156.272c-0.186 5.11-0.29 10.448-0.268 16zM206.95 568c1.51-5.7 3.522-11.12 5.958-16h198.946c0.806 5.286 1.77 10.624 2.918 16h-207.822zM217.182 632c-4.22-4.49-7.352-9.954-9.52-16h222.754c2.452 5.386 5.14 10.73 8.124 16h-221.358zM204.178 600c-0.512-5.244-0.5-10.638-0.028-16h214.564c1.508 5.336 3.242 10.676 5.17 16h-219.706zM734.994 154.626c-18.952 2.988-19.384 54.654-19.384 54.654s55.688 54.656 67.824 128.152c32.652 0 52.814 78.138 20.164 105.628 1.362 28.94 41.968 227.176-163.598 227.176-205.564 0-164.958-198.236-163.598-227.176-32.654-27.49-12.488-105.628 20.162-105.628 12.134-73.496 67.826-128.152 67.826-128.152s-0.432-51.666-19.384-54.654c-61.048-9.632-289.006-109.316-289.006-218.626h768c0 109.31-227.958 208.994-289.006 218.626z" />
<glyph unicode="&#xe073;" glyph-name="quote" d="M0.48 290.166c5.358-94.098 78.976-177.606 182.558-197.134 120.462-22.676 220.18 52.446 241.228 164.356 21.074 111.944-44.44 218.192-164.882 240.876-9.624 1.812-19.084 2.024-28.542 2.656 0.344 50.916 145.764 218.474 240.416 306.094h-68.012c-362.906-183.1-408.774-462.766-402.766-516.848zM1024 807.012h-67.998c-362.902-183.1-408.786-462.764-402.762-516.846 5.328-94.098 78.958-177.606 182.546-197.134 120.466-22.676 220.144 52.446 241.226 164.356 21.082 111.944-44.454 218.192-164.9 240.876-9.596 1.812-19.056 2.024-28.542 2.656 0.366 50.916 145.794 218.472 240.43 306.092z" />
<glyph unicode="&#xe074;" glyph-name="quote2" d="M1023.52 605.838c-5.33 94.098-78.968 177.61-182.55 197.132-120.466 22.676-220.178-52.442-241.23-164.352-21.064-111.94 44.44-218.186 164.89-240.876 9.604-1.816 19.070-2.026 28.548-2.658-0.352-50.926-145.786-218.472-240.428-306.098h68.012c362.896 183.108 408.772 462.774 402.758 516.852zM0 88.988h68.012c362.892 183.106 408.778 462.772 402.75 516.852-5.324 94.098-78.96 177.612-182.542 197.13-120.478 22.676-220.162-52.436-241.23-164.346-21.084-111.94 44.436-218.188 164.892-240.876 9.596-1.816 19.058-2.028 28.548-2.658-0.35-50.928-145.784-218.474-240.43-306.102z" />
<glyph unicode="&#xe075;" glyph-name="quote3" d="M455.126 867.166c-48.182-27.592-87.152-51.358-116.864-71.272-29.758-19.944-59.968-46.24-90.734-78.918-28.69-30.644-50.74-62.858-66.124-96.542-15.368-33.732-26.13-77.156-32.272-130.276h73.8c63.534 0 113.506-15.624 149.916-46.902 36.366-31.278 54.564-77.126 54.564-137.574 0-43.048-16.166-83.328-48.438-120.716-32.272-37.42-76.628-56.114-132.984-56.114-88.16 0-151.198 28.898-189.114 86.7-37.946 57.798-56.88 133.782-56.88 227.948 0 66.484 14.33 127.084 43.064 181.828 28.674 54.728 63.534 103.586 104.536 146.59 42.010 43.982 86.594 81.31 133.752 112.018 47.142 30.706 86.594 55.768 118.398 75.214l55.38-91.984zM1024 867.166c-48.196-27.592-87.15-51.358-116.864-71.272-29.742-19.944-59.966-46.24-90.704-78.918-29.742-31.654-52.048-64.122-66.862-97.31-14.872-33.206-25.346-76.388-31.488-129.508h73.786c63.548 0 113.522-15.624 149.886-46.902 36.396-31.278 54.58-77.126 54.58-137.574 0-43.048-16.166-83.328-48.438-120.716-32.272-37.42-76.616-56.114-132.968-56.114-88.176 0-151.212 28.898-189.144 86.7-37.93 57.798-56.836 133.782-56.836 227.948 0 66.484 14.33 127.084 43.020 181.828 28.688 54.728 63.548 103.586 104.55 146.59 41.994 43.982 86.61 81.31 133.72 112.018 47.142 30.706 86.638 55.768 118.43 75.214l55.332-91.984z" />
<glyph unicode="&#xe076;" glyph-name="quote4" d="M568.906 28.816c48.184 27.57 87.098 51.356 116.8 71.238 29.764 19.946 59.956 46.266 90.724 78.926 28.698 30.68 50.746 62.82 66.086 96.55 15.37 33.726 26.166 77.156 32.326 130.25h-73.8c-63.554 0-113.508 15.644-149.92 46.872-36.352 31.29-54.588 77.14-54.588 137.628 0 43.030 16.164 83.286 48.458 120.704 32.294 37.434 76.636 56.114 132.994 56.114 88.164 0 151.2-28.926 189.136-86.702 37.938-57.79 56.876-133.772 56.876-227.898 0-66.482-14.334-127.078-43.030-181.848-28.668-54.71-63.554-103.566-104.542-146.536-42.024-44.004-86.61-81.332-133.756-112.012-47.148-30.71-86.61-55.746-118.386-75.204l-55.378 91.918zM0 28.816c48.184 27.57 87.128 51.356 116.862 71.238 29.764 19.946 59.956 46.266 90.71 78.926 29.764 31.656 52.026 64.102 66.894 97.282 14.866 33.21 25.388 76.424 31.502 129.518h-73.786c-63.554 0-113.506 15.644-149.888 46.872-36.352 31.29-54.588 77.14-54.588 137.628 0 43.030 16.148 83.286 48.428 120.704 32.296 37.434 76.636 56.114 133.008 56.114 88.15 0 151.2-28.926 189.106-86.702 37.954-57.79 56.906-133.772 56.906-227.898 0-66.482-14.334-127.078-43.030-181.848-28.666-54.71-63.554-103.566-104.556-146.536-42.008-44.004-86.594-81.332-133.756-112.012-47.146-30.71-86.594-55.746-118.386-75.204l-55.426 91.918z" />
<glyph unicode="&#xe077;" glyph-name="search" d="M992.262 88.604l-242.552 206.294c-25.074 22.566-51.89 32.926-73.552 31.926 57.256 67.068 91.842 154.078 91.842 249.176 0 212.078-171.922 384-384 384-212.076 0-384-171.922-384-384s171.922-384 384-384c95.098 0 182.108 34.586 249.176 91.844-1-21.662 9.36-48.478 31.926-73.552l206.294-242.552c35.322-39.246 93.022-42.554 128.22-7.356s31.892 92.898-7.354 128.22zM384 320c-141.384 0-256 114.616-256 256s114.616 256 256 256 256-114.616 256-256-114.614-256-256-256z" />
<glyph unicode="&#xe078;" glyph-name="search2" d="M992.262 88.604l-242.552 206.294c-25.074 22.566-51.89 32.926-73.552 31.926 57.256 67.066 91.842 154.078 91.842 249.176 0 212.078-171.922 384-384 384-212.076 0-384-171.922-384-384s171.922-384 384-384c95.098 0 182.11 34.586 249.176 91.844-1-21.662 9.36-48.476 31.926-73.55l206.294-242.554c35.322-39.246 93.022-42.554 128.218-7.356 35.2 35.198 31.894 92.898-7.352 128.22zM574.522 376h-381.042c-5.388 5.12-10.562 10.464-15.524 16h412.088c-4.962-5.536-10.134-10.88-15.522-16zM303.088 312c-14.028 4.282-27.58 9.648-40.562 16h242.95c-12.982-6.352-26.534-11.718-40.562-16h-161.826zM234.178 344c-7.702 4.968-15.134 10.312-22.284 16h344.212c-7.15-5.688-14.584-11.032-22.286-16h-299.642zM164.664 408c-3.994 5.192-7.806 10.528-11.43 16h461.532c-3.624-5.472-7.436-10.808-11.43-16h-438.672zM143.402 440c-2.972 5.23-5.788 10.562-8.42 16h498.036c-2.632-5.438-5.448-10.77-8.42-16h-481.196zM127.872 472c-2.142 5.256-4.142 10.588-5.962 16h524.18c-1.822-5.412-3.82-10.744-5.964-16h-512.254zM117.078 504c-1.424 5.274-2.71 10.606-3.824 16h541.492c-1.114-5.394-2.4-10.726-3.822-16h-533.846zM107.556 576c0 2.676 0.048 5.342 0.124 8h552.638c0.076-2.658 0.124-5.324 0.124-8s-0.046-5.342-0.124-8h-552.638c-0.076 2.658-0.124 5.324-0.124 8zM193.48 776h381.040c5.388-5.12 10.56-10.464 15.524-16h-412.086c4.96 5.536 10.132 10.88 15.522 16zM464.912 840c14.028-4.282 27.58-9.648 40.562-16h-242.948c12.982 6.352 26.534 11.718 40.562 16h161.824zM533.82 808c7.702-4.968 15.134-10.314 22.286-16h-344.212c7.15 5.686 14.584 11.032 22.286 16h299.64zM603.334 744c3.994-5.192 7.806-10.526 11.43-16h-461.53c3.624 5.474 7.436 10.808 11.43 16h438.67zM624.596 712c2.972-5.232 5.788-10.564 8.42-16h-498.034c2.632 5.436 5.448 10.768 8.42 16h481.194zM640.124 680c2.144-5.256 4.14-10.588 5.962-16h-524.176c1.822 5.412 3.82 10.744 5.962 16h512.252zM650.92 648c1.424-5.274 2.71-10.606 3.824-16h-541.492c1.114 5.394 2.4 10.726 3.824 16h533.844zM657.542 616c0.77-5.286 1.384-10.622 1.85-16h-550.784c0.464 5.378 1.080 10.714 1.848 16h547.086zM659.39 552c-0.464-5.378-1.080-10.714-1.85-16h-547.084c-0.768 5.286-1.384 10.622-1.848 16h550.782z" />
<glyph unicode="&#xe079;" glyph-name="zoom-in" d="M992.262 88.604l-242.552 206.294c-25.074 22.566-51.89 32.926-73.552 31.926 57.256 67.068 91.842 154.078 91.842 249.176 0 212.078-171.922 384-384 384-212.076 0-384-171.922-384-384s171.922-384 384-384c95.098 0 182.108 34.586 249.176 91.844-1-21.662 9.36-48.478 31.926-73.552l206.294-242.552c35.322-39.246 93.022-42.554 128.22-7.356s31.892 92.898-7.354 128.22zM384 320c-141.384 0-256 114.616-256 256s114.616 256 256 256 256-114.616 256-256-114.614-256-256-256zM448 768h-128v-128h-128v-128h128v-128h128v128h128v128h-128z" />
<glyph unicode="&#xe07a;" glyph-name="zoom-out" d="M992.262 88.604l-242.552 206.294c-25.074 22.566-51.89 32.926-73.552 31.926 57.256 67.068 91.842 154.078 91.842 249.176 0 212.078-171.922 384-384 384-212.076 0-384-171.922-384-384s171.922-384 384-384c95.098 0 182.108 34.586 249.176 91.844-1-21.662 9.36-48.478 31.926-73.552l206.294-242.552c35.322-39.246 93.022-42.554 128.22-7.356s31.892 92.898-7.354 128.22zM384 320c-141.384 0-256 114.616-256 256s114.616 256 256 256 256-114.616 256-256-114.614-256-256-256zM192 640h384v-128h-384z" />
<glyph unicode="&#xe07b;" glyph-name="key" d="M704 960c-176.73 0-320-143.268-320-320 0-20.026 1.858-39.616 5.376-58.624l-389.376-389.376v-192c0-35.346 28.654-64 64-64h64v64h128v128h128v128h128l83.042 83.042c34.010-12.316 70.696-19.042 108.958-19.042 176.73 0 320 143.268 320 320s-143.27 320-320 320zM799.874 639.874c-53.020 0-96 42.98-96 96s42.98 96 96 96 96-42.98 96-96-42.98-96-96-96z" />
<glyph unicode="&#xe07c;" glyph-name="key2" d="M672 943.834c-149.89 0-271.834-121.944-271.834-271.834 0-57.644 18.050-111.144 48.776-155.176l-418.884-418.882c-18.746-18.746-18.746-49.136 0-67.882 9.374-9.374 21.658-14.060 33.942-14.060s24.568 4.686 33.942 14.058l22.058 22.060 102.058-102.058c9.374-9.374 21.658-14.060 33.942-14.060s24.568 4.686 33.942 14.058c18.746 18.746 18.746 49.136 0 67.882l-102.060 102.060 54.118 54.118 102.058-102.058c9.374-9.374 21.658-14.060 33.942-14.060s24.568 4.686 33.942 14.058c18.746 18.746 18.746 49.136 0 67.882l-102.060 102.060 206.942 206.942c44.032-30.724 97.532-48.776 155.176-48.776 149.89 0 271.834 121.944 271.834 271.834s-121.944 271.834-271.834 271.834zM672 496.166c-96.956 0-175.834 78.878-175.834 175.834s78.878 175.834 175.834 175.834 175.834-78.878 175.834-175.834-78.878-175.834-175.834-175.834z" />
<glyph unicode="&#xe07d;" glyph-name="locked" d="M608 512h-32v128c0 141.384-114.616 256-256 256s-256-114.616-256-256v-128h-32c-17.6 0-32-14.4-32-32v-448c0-17.6 14.4-32 32-32h576c17.6 0 32 14.4 32 32v448c0 17.6-14.4 32-32 32zM372.93 271.918l11.070-143.918h-128l11.070 143.918c-25.948 17.184-43.070 46.626-43.070 80.082 0 53.020 42.98 96 96 96s96-42.98 96-96c0-33.456-17.122-62.898-43.070-80.082zM128 512v128c0 106.040 85.96 192 192 192s192-85.96 192-192v-128h-384z" />
<glyph unicode="&#xe07e;" glyph-name="unlocked" d="M768 896c-141.384 0-256-114.616-256-256v-128h-480c-17.6 0-32-14.4-32-32v-448c0-17.6 14.4-32 32-32h576c17.6 0 32 14.4 32 32v448c0 17.6-14.4 32-32 32h-32v128c0 106.040 85.96 192 192 192s192-85.96 192-192v-128h64v128c0 141.384-114.614 256-256 256zM372.93 271.918l11.070-143.918h-128l11.070 143.918c-25.948 17.184-43.070 46.626-43.070 80.082 0 53.020 42.98 96 96 96s96-42.98 96-96c0-33.456-17.122-62.898-43.070-80.082z" />
<glyph unicode="&#xe07f;" glyph-name="locked2" d="M512.008-64c-185.288 0-335.446 150.25-335.446 335.462 0 120.388 63.604 225.666 158.89 284.84v209.496c0 107.282 86.992 194.202 194.218 194.202 107.246 0 194.202-86.918 194.202-194.202v-234.362c75.362-61.526 123.562-155.080 123.562-259.974 0.002-185.286-150.14-335.462-335.426-335.462zM653.252 765.798c0 68.27-55.308 123.616-123.58 123.616-68.252 0-123.58-55.344-123.58-123.616v-176.264c33.306 11.12 68.836 17.356 105.916 17.356 50.534 0 98.258-11.448 141.244-31.5v190.408zM512.008 553.916c-156.028 0-282.47-126.478-282.47-282.452 0-156.010 126.478-282.486 282.47-282.486 155.972 0 282.488 126.476 282.488 282.486 0 155.974-126.442 282.452-282.488 282.452zM512.008 6.586c-146.276 0-264.842 118.53-264.842 264.876 0 146.276 118.566 264.842 264.842 264.842s264.842-118.566 264.842-264.842c0-146.346-118.53-264.876-264.842-264.876zM564.984 342.086c0 29.204-23.736 52.974-52.976 52.974s-52.976-23.772-52.976-52.974c0-25.084 17.81-45.102 41.218-50.642l-41.218-161.224h108.102l-46.394 160.676c24.884 4.304 44.244 25.048 44.244 51.19z" />
<glyph unicode="&#xe080;" glyph-name="unlocked2" d="M856.388 536.296v229.482c0 68.278-55.346 123.612-123.658 123.612-68.24 0-123.586-55.334-123.586-123.612v-209.5c95.208-59.166 158.928-164.426 158.928-284.87 0-185.222-150.222-335.408-335.546-335.408-185.304 0-335.526 150.186-335.526 335.408 0 185.278 150.222 335.462 335.526 335.462 37.102 0 72.592-6.258 105.97-17.334v176.24c0 107.26 86.984 194.222 194.234 194.222 107.286 0 194.27-86.962 194.27-194.222v-229.482h-70.612zM432.526 553.926c-156.020 0-282.532-126.48-282.532-282.48 0-155.962 126.512-282.408 282.532-282.408s282.57 126.446 282.57 282.408c0 156-126.55 282.48-282.57 282.48zM432.526 6.592c-146.314 0-264.898 118.52-264.898 264.816 0 146.332 118.584 264.888 264.898 264.888s264.934-118.518 264.934-264.888c0-146.222-118.62-264.816-264.934-264.816zM485.52 342.038c0 29.296-23.746 53-52.994 53s-52.994-23.704-52.994-53c0-25.038 17.8-45.074 41.25-50.554l-41.214-161.26h108.14l-46.364 160.666c24.84 4.296 44.176 25.036 44.176 51.148z" />
<glyph unicode="&#xe081;" glyph-name="cogs" d="M363.722 237.948l41.298 57.816-45.254 45.256-57.818-41.296c-10.722 5.994-22.204 10.774-34.266 14.192l-11.682 70.084h-64l-11.68-70.086c-12.062-3.418-23.544-8.198-34.266-14.192l-57.818 41.298-45.256-45.256 41.298-57.816c-5.994-10.72-10.774-22.206-14.192-34.266l-70.086-11.682v-64l70.086-11.682c3.418-12.060 8.198-23.544 14.192-34.266l-41.298-57.816 45.254-45.256 57.818 41.296c10.722-5.994 22.204-10.774 34.266-14.192l11.682-70.084h64l11.68 70.086c12.062 3.418 23.544 8.198 34.266 14.192l57.818-41.296 45.254 45.256-41.298 57.816c5.994 10.72 10.774 22.206 14.192 34.266l70.088 11.68v64l-70.086 11.682c-3.418 12.060-8.198 23.544-14.192 34.266zM224 96c-35.348 0-64 28.654-64 64s28.652 64 64 64 64-28.654 64-64-28.652-64-64-64zM1024 576v64l-67.382 12.25c-1.242 8.046-2.832 15.978-4.724 23.79l57.558 37.1-24.492 59.128-66.944-14.468c-4.214 6.91-8.726 13.62-13.492 20.13l39.006 56.342-45.256 45.254-56.342-39.006c-6.512 4.766-13.22 9.276-20.13 13.494l14.468 66.944-59.128 24.494-37.1-57.558c-7.812 1.892-15.744 3.482-23.79 4.724l-12.252 67.382h-64l-12.252-67.382c-8.046-1.242-15.976-2.832-23.79-4.724l-37.098 57.558-59.128-24.492 14.468-66.944c-6.91-4.216-13.62-8.728-20.13-13.494l-56.342 39.006-45.254-45.254 39.006-56.342c-4.766-6.51-9.278-13.22-13.494-20.13l-66.944 14.468-24.492-59.128 57.558-37.1c-1.892-7.812-3.482-15.742-4.724-23.79l-67.384-12.252v-64l67.382-12.25c1.242-8.046 2.832-15.978 4.724-23.79l-57.558-37.1 24.492-59.128 66.944 14.468c4.216-6.91 8.728-13.618 13.494-20.13l-39.006-56.342 45.254-45.256 56.342 39.006c6.51-4.766 13.22-9.276 20.13-13.492l-14.468-66.944 59.128-24.492 37.102 57.558c7.81-1.892 15.742-3.482 23.788-4.724l12.252-67.384h64l12.252 67.382c8.044 1.242 15.976 2.832 23.79 4.724l37.1-57.558 59.128 24.492-14.468 66.944c6.91 4.216 13.62 8.726 20.13 13.492l56.342-39.006 45.256 45.256-39.006 56.342c4.766 6.512 9.276 13.22 13.492 20.13l66.944-14.468 24.492 59.13-57.558 37.1c1.892 7.812 3.482 15.742 4.724 23.79l67.382 12.25zM672 468.8c-76.878 0-139.2 62.322-139.2 139.2s62.32 139.2 139.2 139.2 139.2-62.322 139.2-139.2c0-76.878-62.32-139.2-139.2-139.2z" />
<glyph unicode="&#xe082;" glyph-name="cog" d="M1024 351.906v192.188l-146.774 24.462c-5.958 18.132-13.222 35.668-21.694 52.5l86.454 121.034-135.896 135.898-120.826-86.304c-16.91 8.554-34.538 15.888-52.768 21.902l-24.402 146.414h-192.188l-24.402-146.416c-18.23-6.014-35.858-13.348-52.766-21.902l-120.828 86.304-135.898-135.898 86.454-121.036c-8.47-16.83-15.734-34.366-21.692-52.498l-146.774-24.46v-192.188l147.118-24.52c5.96-17.968 13.21-35.348 21.642-52.030l-86.748-121.448 135.898-135.896 121.654 86.894c16.602-8.35 33.89-15.528 51.764-21.434l24.578-147.472h192.188l24.578 147.474c17.874 5.906 35.162 13.084 51.766 21.432l121.652-86.892 135.896 135.896-86.744 121.446c8.432 16.682 15.678 34.062 21.64 52.032l147.118 24.518zM512 320c-70.692 0-128 57.306-128 128 0 70.692 57.308 128 128 128 70.694 0 128-57.308 128-128 0-70.694-57.306-128-128-128z" />
<glyph unicode="&#xe083;" glyph-name="cog2" d="M553.876 896l21.848-131.082 36.722-12.114c15.040-4.96 29.818-11.096 43.93-18.232l34.564-17.484 108.23 77.306 59.222-59.224-77.404-108.366 17.376-34.522c7.072-14.048 13.146-28.752 18.058-43.702l12.086-36.788 131.492-21.914v-83.754l-131.704-21.952-12.154-36.626c-4.92-14.826-10.982-29.4-18.018-43.32l-17.466-34.558 77.738-108.838-59.222-59.222-108.972 77.832-34.512-17.352c-13.87-6.972-28.37-12.976-43.1-17.844l-36.694-12.124-22.020-132.12h-83.754l-22.020 132.118-36.694 12.124c-14.73 4.868-29.228 10.872-43.090 17.842l-34.516 17.36-108.974-77.838-59.224 59.222 77.742 108.842-17.47 34.56c-7.042 13.932-13.104 28.502-18.014 43.306l-12.152 36.632-131.71 21.956v83.754l131.488 21.916 12.086 36.786c4.914 14.954 10.99 29.66 18.058 43.706l17.374 34.522-77.404 108.368 59.226 59.224 108.228-77.306 34.566 17.484c14.114 7.138 28.892 13.274 43.928 18.234l36.724 12.114 6.356 38.144 15.492 92.93h83.754M608.094 960h-192.188l-24.402-146.416c-18.23-6.014-35.858-13.348-52.766-21.902l-120.828 86.304-135.898-135.898 86.454-121.036c-8.47-16.83-15.734-34.366-21.692-52.498l-146.774-24.46v-192.188l147.118-24.52c5.96-17.968 13.21-35.348 21.642-52.030l-86.748-121.448 135.898-135.896 121.654 86.894c16.602-8.35 33.89-15.528 51.764-21.434l24.578-147.472h192.188l24.578 147.474c17.874 5.906 35.162 13.084 51.766 21.432l121.652-86.892 135.896 135.896-86.744 121.446c8.432 16.682 15.678 34.062 21.64 52.032l147.118 24.518v192.188l-146.774 24.462c-5.958 18.132-13.222 35.668-21.694 52.5l86.454 121.034-135.896 135.898-120.826-86.304c-16.91 8.554-34.538 15.888-52.768 21.902l-24.402 146.414zM512 288c-87.948 0-159.5 71.55-159.5 159.5 0 87.948 71.552 159.5 159.5 159.5 87.95 0 159.5-71.552 159.5-159.5 0-87.95-71.55-159.5-159.5-159.5zM512 543c-52.66 0-95.5-42.84-95.5-95.5 0-52.658 42.84-95.5 95.5-95.5 52.658 0 95.5 42.842 95.5 95.5 0 52.66-42.842 95.5-95.5 95.5z" />
<glyph unicode="&#xe084;" glyph-name="remove" d="M192-64h640l64 704h-768zM640 832v128h-256v-128h-320v-192l64 64h768l64-64v192h-320zM576 832h-128v64h128v-64z" />
<glyph unicode="&#xe085;" glyph-name="remove2" d="M448.002 191.998h63.998v-63.998h-63.998zM576 191.998v64h-64v-63.998h63.998v-64h64v63.998zM320.002 191.998h64v-63.998h-64zM512 128h63.998v-64h-63.998zM384.002 127.998h64v-63.996h-64zM256.002 384.002h63.998v-64h-63.998zM384.002 255.998h63.998v-64h-63.998zM960 736c0 88.366-214.902 160-480 160s-480-71.634-480-160c0-0.432 0.040-0.862 0.048-1.292l-0.032 0.042c-0.016-37.634 15.078-91.102 41.174-195.484 0.002-0.008 0.004-0.016 0.008-0.026l115.882-463.54c19.21-76.834 99.726-139.7 178.926-139.7h287.988c79.202 0 159.716 62.866 178.926 139.702l115.882 463.54c0.004 0.010 0.006 0.018 0.008 0.026 26.096 104.382 41.19 157.848 41.172 195.482l-0.032-0.042c0.012 0.43 0.050 0.86 0.050 1.292zM192.002 320.002v64h63.998v63.998h-64v64h-64v64h64v-64h64v64h64v-64h64v-63.998h64v-64h64v-64h-64v64h-64v-64h-63.998v-64h-64v64h-64zM576 448.004v63.998h63.992v64h64v-64h-63.992v-64l-64 0.002v-64h-64v64h-64v64h64v-64h64zM703.998 128h-64v-64h-63.998v-64h-64v64h-64v-63.998h-64v63.998h-64v64h-64v64h64v63.998h64v64h64v-64h64v64h64v-64h64v-63.998h63.998v-64zM768 319.998h-64v-63.998h-64v64h-64v64h64v63.998h63.992v64h64v-64h-63.992v-64h64v-64zM832 512.002h-64v64h64v-64zM869.524 714.858c-7.476-4.648-16.062-9.218-25.574-13.662-18.13-8.468-39.686-16.46-63.77-23.578-82.076-24.258-188.682-37.618-300.18-37.618s-218.104 13.36-300.18 37.618c-24.084 7.118-45.638 15.11-63.77 23.578-9.512 4.442-18.098 9.012-25.574 13.662-15.95 9.916-22.708 17.484-25.33 21.142 2.624 3.658 9.38 11.226 25.33 21.142 21.73 13.51 52.626 26.388 89.344 37.24 82.076 24.258 188.682 37.618 300.18 37.618s218.104-13.36 300.18-37.618c36.718-10.852 67.614-23.73 89.344-37.24 15.95-9.916 22.708-17.484 25.33-21.142-2.624-3.658-9.38-11.226-25.33-21.142zM320 448.002v-64h64v63.998h-64v64h-64v-63.998zM640 383.998h64v-63.998h-64z" />
<glyph unicode="&#xe086;" glyph-name="remove3" d="M512 512c-212.078 0-384 85.96-384 192v-64c0-39.25 23.574-75.742 64-106.148v-469.852c0-70.694 143.268-128 320-128 176.73 0 320 57.306 320 128v469.852c40.426 30.408 64 66.898 64 106.148v64c0-106.040-171.922-192-384-192zM384 11.764c-20.744 4.050-40.244 9.076-57.934 15.056-47.494 16.054-66.136 33.35-70.066 39.588v430.498c36.934-16.53 80.302-29.534 128-37.964v-447.178zM576 2.806c-20.808-1.848-42.268-2.806-64-2.806-21.734 0-43.192 0.958-64 2.806v447.864c20.816-1.748 42.192-2.67 64-2.67s43.184 0.922 64 2.67v-447.864zM768 66.408c-3.93-6.236-22.572-23.534-70.066-39.588-17.692-5.98-37.192-11.006-57.934-15.056v447.176c47.698 8.43 91.066 21.434 128 37.964v-430.496zM512 576c212.078 0 384 85.96 384 192s-171.922 192-384 192c-212.076 0-384-85.96-384-192s171.924-192 384-192zM269.094 846.522c62.888 31.444 151.424 49.478 242.906 49.478s180.020-18.034 242.908-49.478c47.554-23.776 77.092-53.864 77.092-78.522s-29.54-54.746-77.092-78.522c-62.888-31.444-151.426-49.478-242.908-49.478s-180.018 18.034-242.908 49.478c-47.552 23.776-77.092 53.864-77.092 78.522s29.54 54.746 77.094 78.522zM448 768h128v-64h64v128h-256v-128h64z" />
<glyph unicode="&#xe087;" glyph-name="remove4" d="M128 0c0-35.346 28.654-64 64-64h640c35.348 0 64 28.654 64 64v704h-768v-704zM640 576h128v-512h-128v512zM448 576h128v-512h-128v512zM256 576h128v-512h-128v512zM896 896h-256v64h-256v-64h-256c-70.692 0-128-57.308-128-128h1024c0 70.692-57.306 128-128 128z" />
<glyph unicode="&#xe088;" glyph-name="remove5" d="M288 96c17.674 0 32 14.326 32 32 0 0.006 0 0.014 0 0.020v447.962c0 0.006 0 0.012 0 0.020 0 17.672-14.328 32-32 32s-32-14.328-32-32v0-448c0-17.676 14.328-32.002 32-32.002zM480 96c17.674 0 32 14.326 32 32 0 0.006 0 0.014 0 0.020v447.962c0 0.006 0 0.012 0 0.020 0 17.672-14.328 32-32 32s-32-14.328-32-32v0-448c0-17.676 14.328-32.002 32-32.002zM672 96c17.674 0 32 14.326 32 32 0 0.006 0 0.014 0 0.020v447.962c0 0.006 0 0.012 0 0.020 0 17.672-14.326 32-32 32-17.672 0-32-14.328-32-32v0-448c0-17.676 14.328-32.002 32-32.002zM703.974 830.92c0.006 0.36 0.026 0.718 0.026 1.080v64c0 35.2-28.8 64-64 64h-320c-35.2 0-64-28.8-64-64v-64c0-0.362 0.022-0.72 0.028-1.080h-256.028v-62.92h64v-704c0-70.4 57.6-128 128-128h576c70.4 0 128 57.6 128 128v704h64v62.92h-256.026zM320 895.886c0.034 0.040 0.076 0.082 0.114 0.114h319.77c0.040-0.034 0.082-0.076 0.116-0.116v-63.77c-0.034-0.040-0.076-0.082-0.116-0.114h-319.77c-0.040 0.034-0.082 0.076-0.114 0.114v63.772zM832 64c0-16.954-6.696-32.986-18.856-45.144-12.158-12.16-28.19-18.856-45.144-18.856h-576c-16.954 0-32.986 6.696-45.146 18.856-12.158 12.158-18.854 28.19-18.854 45.144v704h704v-704z" />
<glyph unicode="&#xe089;" glyph-name="clipboard" d="M768 832h-128v64c0 35.2-28.8 64-64 64h-128c-35.204 0-64-28.8-64-64v-64h-128v-128h512v128zM576 832h-128v63.886c0.034 0.038 0.072 0.078 0.114 0.114h127.768c0.042-0.036 0.082-0.076 0.118-0.114v-63.886zM864 832h-64v-64h32v-768h-640v768h32v64h-64c-17.602 0-32-14.4-32-32v-832c0-17.6 14.398-32 32-32h704c17.6 0 32 14.4 32 32v832c0 17.6-14.4 32-32 32z" />
<glyph unicode="&#xe08a;" glyph-name="clipboard2" d="M768 832h-128v64c0 35.2-28.8 64-64 64h-128c-35.204 0-64-28.8-64-64v-64h-128v-128h512v128zM576 832h-128v63.886c0.034 0.038 0.072 0.078 0.114 0.114h127.768c0.042-0.036 0.082-0.076 0.118-0.114v-63.886zM864 832h-64v-64h32v-768h-640v768h32v64h-64c-17.602 0-32-14.4-32-32v-832c0-17.6 14.398-32 32-32h704c17.6 0 32 14.4 32 32v832c0 17.6-14.4 32-32 32zM256 576h512v-64h-512zM256 384h512v-64h-512zM256 192h512v-64h-512z" />
<glyph unicode="&#xe08b;" glyph-name="grid" d="M0 960h256v-256h-256zM384 960h256v-256h-256zM768 960h256v-256h-256zM0 576h256v-256h-256zM384 576h256v-256h-256zM768 576h256v-256h-256zM0 192h256v-256h-256zM384 192h256v-256h-256zM768 192h256v-256h-256z" />
<glyph unicode="&#xe08c;" glyph-name="list" d="M0 960h256v-256h-256zM384 960h640v-256h-640zM0 576h256v-256h-256zM384 576h640v-256h-640zM0 192h256v-256h-256zM384 192h640v-256h-640z" />
<glyph unicode="&#xe08d;" glyph-name="list2" d="M0 959.982v-255.99h1024l-0.036 255.99h-1023.964zM0 319.958h1024v256.010l-1024 0.054v-256.064zM0-63.982h1024v255.972h-1024v-255.972z" />
<glyph unicode="&#xe08e;" glyph-name="list3" d="M384 960h256v-256h-256v256zM384 576h256v-256h-256v256zM384 192h256v-256h-256v256z" />
<glyph unicode="&#xe08f;" glyph-name="grid2" d="M128 960c-70.692 0-128-57.308-128-128s57.308-128 128-128 128 57.308 128 128-57.308 128-128 128zM128 744c-48.524 0-88 39.476-88 88s39.476 88 88 88 88-39.476 88-88-39.476-88-88-88zM512 960c-70.692 0-128-57.308-128-128s57.308-128 128-128c70.692 0 128 57.308 128 128s-57.308 128-128 128zM512 744c-48.524 0-88 39.476-88 88s39.476 88 88 88 88-39.476 88-88-39.476-88-88-88zM896 704c70.692 0 128 57.308 128 128s-57.308 128-128 128-128-57.308-128-128 57.308-128 128-128zM896 920c48.524 0 88-39.476 88-88s-39.476-88-88-88-88 39.476-88 88 39.476 88 88 88zM128 576c-70.692 0-128-57.308-128-128s57.308-128 128-128 128 57.308 128 128c0 70.692-57.308 128-128 128zM128 360c-48.524 0-88 39.476-88 88s39.476 88 88 88 88-39.476 88-88-39.476-88-88-88zM512 576c-70.692 0-128-57.308-128-128s57.308-128 128-128c70.692 0 128 57.308 128 128s-57.308 128-128 128zM512 360c-48.524 0-88 39.476-88 88s39.476 88 88 88 88-39.476 88-88-39.476-88-88-88zM896 576c-70.692 0-128-57.308-128-128s57.308-128 128-128 128 57.308 128 128c0 70.692-57.308 128-128 128zM896 360c-48.524 0-88 39.476-88 88s39.476 88 88 88 88-39.476 88-88-39.476-88-88-88zM128 192c-70.692 0-128-57.308-128-128s57.308-128 128-128 128 57.308 128 128-57.308 128-128 128zM128-24c-48.524 0-88 39.476-88 88s39.476 88 88 88 88-39.476 88-88-39.476-88-88-88zM512 192c-70.692 0-128-57.308-128-128s57.308-128 128-128c70.692 0 128 57.308 128 128s-57.308 128-128 128zM512-24c-48.524 0-88 39.476-88 88s39.476 88 88 88 88-39.476 88-88-39.476-88-88-88zM896 192c-70.692 0-128-57.308-128-128s57.308-128 128-128 128 57.308 128 128-57.308 128-128 128zM896-24c-48.524 0-88 39.476-88 88s39.476 88 88 88 88-39.476 88-88-39.476-88-88-88z" />
<glyph unicode="&#xe090;" glyph-name="list4" d="M128 960c-70.692 0-128-57.308-128-128s57.308-128 128-128 128 57.308 128 128-57.308 128-128 128zM128 744c-48.524 0-88 39.476-88 88s39.476 88 88 88 88-39.476 88-88-39.476-88-88-88zM128 576c-70.692 0-128-57.308-128-128s57.308-128 128-128 128 57.308 128 128c0 70.692-57.308 128-128 128zM128 360c-48.524 0-88 39.476-88 88s39.476 88 88 88 88-39.476 88-88-39.476-88-88-88zM128 192c-70.692 0-128-57.308-128-128s57.308-128 128-128 128 57.308 128 128-57.308 128-128 128zM128-24c-48.524 0-88 39.476-88 88s39.476 88 88 88 88-39.476 88-88-39.476-88-88-88zM384 896h640v-128h-640zM384 512h640v-128h-640zM384 128h640v-128h-640z" />
<glyph unicode="&#xe091;" glyph-name="list5" d="M384 768c0 70.692 57.308 128 128 128s128-57.308 128-128c0-70.692-57.308-128-128-128s-128 57.308-128 128zM384 448c0 70.692 57.308 128 128 128s128-57.308 128-128c0-70.692-57.308-128-128-128s-128 57.308-128 128zM384 128c0 70.692 57.308 128 128 128s128-57.308 128-128c0-70.692-57.308-128-128-128s-128 57.308-128 128z" />
<glyph unicode="&#xe092;" glyph-name="list6" d="M896 192h-768c-70.4 0-128-57.6-128-128s57.6-128 128-128h768c70.4 0 128 57.6 128 128s-57.6 128-128 128zM896 576h-768c-70.4 0-128-57.6-128-128s57.6-128 128-128h768c70.4 0 128 57.6 128 128s-57.6 128-128 128zM128 704h768c70.4 0 128 57.6 128 128s-57.6 128-128 128h-768c-70.4 0-128-57.6-128-128s57.6-128 128-128z" />
<glyph unicode="&#xe093;" glyph-name="menu" d="M0 576h704v-128h-704zM0 768h704v-128h-704zM0 384h704v-128h-704zM0 192h704v-128h-704zM768 512l128-192 128 192z" />
<glyph unicode="&#xe094;" glyph-name="menu4" d="M0 576h704v-128h-704v128zM0 768h704v-128h-704v128zM0 384h704v-128h-704v128zM0 192h704v-128h-704v128zM768 384l128-192 128 192h-256zM1024 448l-128 192-128-192h256z" />
<glyph unicode="&#xe095;" glyph-name="link" d="M319.93 255.932c17.606-17.606 46.418-17.606 64.024 0l320.118 320.118c17.61 17.606 17.61 46.416 0 64.024-17.604 17.606-46.416 17.606-64.024 0l-320.118-320.118c-17.606-17.606-17.606-46.418 0-64.024zM978.914 813.39l-101.53 101.526c-60.112 60.112-158.474 60.112-218.588 0l-165.55-165.55c-43.988-43.99-55.782-108.458-35.39-163.438l239.338 239.336c24.898 24.9 65.644 24.9 90.542 0l101.528-101.526c24.896-24.9 24.896-65.644 0-90.542l-239.334-239.334c54.974-20.39 119.446-8.602 163.434 35.39l165.55 165.546c60.116 60.116 60.116 158.478 0 218.592zM326.806 70.736c-24.898-24.898-65.642-24.898-90.542 0l-101.524 101.528c-24.898 24.9-24.898 65.644 0 90.542l239.332 239.334c-54.978 20.392-119.45 8.6-163.438-35.39l-165.548-165.546c-60.114-60.12-60.114-158.48 0-218.594l101.528-101.526c60.112-60.116 158.478-60.116 218.586 0l165.554 165.548c43.988 43.988 55.782 108.458 35.388 163.438l-239.336-239.334z" />
<glyph unicode="&#xe096;" glyph-name="star" d="M1024 562.95l-353.78 51.408-158.22 320.582-158.216-320.582-353.784-51.408 256-249.538-60.432-352.352 316.432 166.358 316.432-166.358-60.434 352.352 256.002 249.538zM512 206.502l-223.462-117.48 42.676 248.83-180.786 176.222 249.84 36.304 111.732 226.396 111.736-226.396 249.836-36.304-180.788-176.222 42.678-248.83-223.462 117.48z" />
<glyph unicode="&#xe097;" glyph-name="star2" d="M1024 562.95l-353.78 51.408-158.22 320.582-158.216-320.582-353.784-51.408 256-249.538-60.432-352.352 316.432 166.358 316.432-166.358-60.434 352.352 256.002 249.538zM512 206.502l-0.942-0.496 0.942 570.768 111.736-226.396 249.836-36.304-180.788-176.222 42.678-248.83-223.462 117.48z" />
<glyph unicode="&#xe098;" glyph-name="star3" d="M1024 562.95l-353.78 51.408-158.22 320.582-158.216-320.582-353.784-51.408 256-249.538-60.432-352.352 316.432 166.358 316.432-166.358-60.434 352.352 256.002 249.538z" />
<glyph unicode="&#xe099;" glyph-name="heart" d="M752 832c55.558 0 107.792-21.636 147.078-60.92 81.098-81.1 81.098-213.058 0.034-294.122l-387.112-386.518-387.080 386.48c-81.098 81.1-81.098 213.058 0 294.158 39.288 39.286 91.52 60.922 147.080 60.922 55.558 0 107.792-21.636 147.076-60.918 14.576-14.578 26.848-31.104 36.474-49.122l56.45-105.654 56.448 105.652c9.626 18.018 21.898 34.544 36.472 49.12 39.288 39.286 91.522 60.922 147.080 60.922M752 896c-69.612 0-139.222-26.554-192.334-79.666-19.458-19.458-35.338-41.138-47.666-64.214-12.33 23.076-28.208 44.756-47.666 64.214-53.112 53.11-122.724 79.666-192.334 79.666-69.612 0-139.222-26.554-192.334-79.666-106.222-106.222-106.222-278.444 0-384.666l432.334-431.668 432.332 431.666c106.222 106.222 106.222 278.444 0 384.666-53.112 53.112-122.722 79.668-192.332 79.668v0z" />
<glyph unicode="&#xe09a;" glyph-name="heart2" d="M944.332 816.334c-106.222 106.222-278.444 106.222-384.666 0-19.458-19.458-35.338-41.138-47.666-64.214-12.33 23.076-28.208 44.756-47.666 64.214-106.222 106.222-278.444 106.222-384.666 0s-106.222-278.444 0-384.666l432.332-431.668 432.332 431.666c106.222 106.222 106.222 278.444 0 384.668z" />
<glyph unicode="&#xe09b;" glyph-name="thumbs-up" d="M892.282 234.814c1.704 20.24 43.902 47.966 43.868 68.24-0.098 21.286-36.964 56.91-34.172 78.014 2.208 16.74 33.11 41.586 34.118 58.49 1.796 30.706-39.704 90.8-68.238 102.348-45.286 18.336-275.41 9.766-275.41 9.766-22.492 39.306 40.070 136.402 57.278 178.324 25.262 61.438 21.008 142.932-10.942 184.798-39.026 51.166-110.658 54.566-112.134 31.682-10.672-166.020-42.458-212.106-85.010-244.91-25.572-19.726-47.908-36.994-59.708-67.056-72.522-184.708-131.040-244.074-159.056-250.508h-94.876v-397.77l291.442-39.002c0 0 266.91-25.264 350.964 0 26.446 7.932 72.078 47.636 82.864 73.112 6.148 14.63-2.394 49.244 4.886 63.354 10.742 20.916 56.102 47.118 56.054 75.542-0.046 20.27-23.658 55.358-21.928 75.576z" />
<glyph unicode="&#xe09c;" glyph-name="thumbs-down" d="M936.102 456.466c-1 16.894-31.918 41.708-34.126 58.474-2.796 21.088 34.094 56.738 34.152 78 0.046 20.274-42.144 48.004-43.86 68.254-1.722 20.208 21.906 55.288 21.938 75.562 0.050 28.432-45.316 54.628-56.066 75.542-7.262 14.118 1.286 48.736-4.886 63.362-10.77 25.478-56.406 65.19-82.828 73.112-84.070 25.258-350.966 0-350.966 0l-291.46-38.992v-397.78h94.89c27.986-15.564 86.522-64.564 159.052-249.272 11.8-30.068 34.146-48.576 59.708-68.286 42.564-32.812 74.314-78.884 84.986-244.918 1.486-22.886 73.114-19.48 112.128 31.674 31.95 41.862 36.218 123.364 10.968 184.804-17.208 41.924-79.79 139.022-57.286 178.342 0 0 230.132-8.57 275.402 9.742 28.536 11.548 70.036 71.66 68.254 102.38z" />
<glyph unicode="&#xe09d;" glyph-name="male" d="M640 960v-128h165.49l-245.032-245.034c-50.588 33.506-111.238 53.034-176.458 53.034-176.73 0-320-143.268-320-320 0-176.73 143.268-320 320-320s320 143.27 320 320c0 65.218-19.53 125.872-53.034 176.458l245.034 245.032v-165.49h128v384h-384zM384 108.8c-116.642 0-211.2 94.56-211.2 211.2s94.558 211.202 211.2 211.202c116.64 0 211.2-94.558 211.2-211.202 0-116.64-94.558-211.2-211.2-211.2z" />
<glyph unicode="&#xe09e;" glyph-name="female" d="M576 326.408c146.060 29.65 256 158.782 256 313.592 0 176.732-143.27 320-320 320s-320-143.268-320-320c0-154.81 109.938-283.942 256-313.592v-134.408h-192v-128h192v-128h128v128h192v128h-192v134.408zM300.802 640c0 116.642 94.556 211.202 211.202 211.202 116.642 0 211.2-94.56 211.2-211.202 0-116.64-94.558-211.2-211.202-211.2-116.646 0-211.2 94.56-211.2 211.2z" />
<glyph unicode="&#xe09f;" glyph-name="reload" d="M1007.302 341.32c0-2.188-0.218-3.756-0.694-4.668-28.436-119.112-88.006-215.658-178.674-289.67-90.632-73.974-196.866-110.982-318.65-110.982-64.892 0-127.672 12.214-188.336 36.642-60.682 24.462-114.784 59.356-162.324 104.708l-86.020-86.042c-8.44-8.422-18.428-12.616-29.968-12.616-11.556 0-21.546 4.194-29.986 12.616-8.44 8.458-12.65 18.45-12.65 29.968v298.678c0 11.596 4.21 21.586 12.65 30.006 8.44 8.424 18.428 12.652 29.986 12.652h298.654c11.54 0 21.528-4.228 29.968-12.652 8.44-8.42 12.668-18.41 12.668-30.006 0-11.52-4.23-21.51-12.668-29.968l-91.306-91.292c31.552-29.352 67.334-51.992 107.328-67.998 39.994-15.968 81.536-23.99 124.646-24.026 59.552 0 115.13 14.472 166.644 43.384 51.55 28.876 92.856 68.654 123.99 119.294 4.884 7.586 16.626 33.58 35.292 78.024 3.572 10.21 10.244 15.314 20.050 15.314h128c5.76 0 10.754-2.116 14.984-6.344 4.228-4.228 6.342-9.226 6.342-15.022h0.074zM1024 874.704v-298.676c0-11.558-4.228-21.546-12.688-29.988-8.458-8.44-18.448-12.652-29.966-12.652h-298.654c-11.558 0-21.546 4.212-29.968 12.652-8.458 8.442-12.688 18.43-12.688 29.988 0 11.54 4.23 21.53 12.688 29.97l91.98 91.988c-65.804 60.888-143.33 91.332-232.666 91.332-59.552 0-115.094-14.456-166.644-43.35s-92.874-68.67-123.972-119.314c-4.884-7.564-16.66-33.58-35.326-78.006-3.554-10.226-10.226-15.332-19.998-15.332h-132.684c-5.778 0-10.772 2.116-15.002 6.344-4.228 4.23-6.344 9.224-6.344 15.002v4.666c28.892 119.13 88.882 215.676 179.97 289.688 91.086 73.996 197.74 110.984 319.962 110.984 64.892 0 128-12.322 189.32-36.988s115.75-59.448 163.326-104.366l86.658 86.026c8.422 8.44 18.41 12.652 29.966 12.652 11.522 0 21.51-4.21 29.968-12.652 8.458-8.44 12.65-18.43 12.65-29.97h0.112z" />
<glyph unicode="&#xe0a0;" glyph-name="turn" d="M294.83 794.678l-166.396 165.322-128.394-127.566 166.432-165.286-124.774-123.968 375.684-0.186-0.804 372.612-121.748-120.928zM857.552 667.112l166.45 165.286-128.412 127.566-166.418-165.286-121.694 120.89-0.818-372.61 375.68 0.186-124.788 123.968zM166.434 228.854l-166.432-165.304 128.394-127.55 166.432 165.268 121.712-120.908 0.804 372.628-375.684-0.186 124.774-123.948zM982.34 352.802l-375.68 0.186 0.782-372.628 121.656 120.908 166.454-165.268 128.376 127.548-166.412 165.304 124.824 123.95z" />
<glyph unicode="&#xe0a1;" glyph-name="expand" d="M399.832 959.964l-399.832-2.35 0.146-395.574 133.040 132.484 177.38-176.614 136.88 136.29-177.38 176.666 129.766 129.098zM310.602 378.944l-177.38-176.668-133.040 132.554-0.146-398.83 399.832 0.948-129.728 129.13 177.38 176.594-136.918 136.272zM713.434 517.948l177.362 176.614 133.022-132.482 0.182 395.57-399.832 2.35 129.728-129.132-177.36-176.632 136.898-136.288zM890.794 202.276l-177.362 176.668-136.898-136.306 177.362-176.596-129.728-129.13 399.832-0.912-0.184 398.796-133.022-132.52z" />
<glyph unicode="&#xe0a2;" glyph-name="cancel" d="M1014.662 137.34c-0.004 0.004-0.008 0.008-0.012 0.010l-310.644 310.65 310.644 310.65c0.004 0.004 0.008 0.006 0.012 0.010 3.344 3.346 5.762 7.254 7.312 11.416 4.246 11.376 1.824 24.682-7.324 33.83l-146.746 146.746c-9.148 9.146-22.45 11.566-33.828 7.32-4.16-1.55-8.070-3.968-11.418-7.31 0-0.004-0.004-0.006-0.008-0.010l-310.648-310.652-310.648 310.65c-0.004 0.004-0.006 0.006-0.010 0.010-3.346 3.342-7.254 5.76-11.414 7.31-11.38 4.248-24.682 1.826-33.83-7.32l-146.748-146.748c-9.148-9.148-11.568-22.452-7.322-33.828 1.552-4.16 3.97-8.072 7.312-11.416 0.004-0.002 0.006-0.006 0.010-0.010l310.65-310.648-310.65-310.652c-0.002-0.004-0.006-0.006-0.008-0.010-3.342-3.346-5.76-7.254-7.314-11.414-4.248-11.376-1.826-24.682 7.322-33.83l146.748-146.746c9.15-9.148 22.452-11.568 33.83-7.322 4.16 1.552 8.070 3.97 11.416 7.312 0.002 0.004 0.006 0.006 0.010 0.010l310.648 310.65 310.648-310.65c0.004-0.002 0.008-0.006 0.012-0.008 3.348-3.344 7.254-5.762 11.414-7.314 11.378-4.246 24.684-1.826 33.828 7.322l146.746 146.748c9.148 9.148 11.57 22.454 7.324 33.83-1.552 4.16-3.97 8.068-7.314 11.414z" />
<glyph unicode="&#xe0a3;" glyph-name="checkmark" d="M864 864l-480-480-224 224-160-160 384-384 640 640z" />
<glyph unicode="&#xe0a4;" glyph-name="checkmark2" d="M983.058 896c-334.5-253.166-655.302-591.8-655.302-591.8l-231.18 207.8-96.576-98.378c95.016-89.302 315.162-325.198 389.632-413.622 209.59 350.18 427.478 611.336 634.368 850.154l-40.942 45.846z" />
<glyph unicode="&#xe0a5;" glyph-name="checkmark3" d="M704 896l-384-704-128 192h-192l320-448 704 960z" />
<glyph unicode="&#xe0a6;" glyph-name="minus" d="M0 544v-192c0-17.672 14.328-32 32-32h960c17.672 0 32 14.328 32 32v192c0 17.672-14.328 32-32 32h-960c-17.672 0-32-14.328-32-32z" />
<glyph unicode="&#xe0a7;" glyph-name="plus" d="M992 576h-352v352c0 17.672-14.328 32-32 32h-192c-17.672 0-32-14.328-32-32v-352h-352c-17.672 0-32-14.328-32-32v-192c0-17.672 14.328-32 32-32h352v-352c0-17.672 14.328-32 32-32h192c17.672 0 32 14.328 32 32v352h352c17.672 0 32 14.328 32 32v192c0 17.672-14.328 32-32 32z" />
<glyph unicode="&#xe0a8;" glyph-name="plus-sign" horiz-adv-x="878" d="M694.857 411.429v73.143q0 14.857-10.857 25.714t-25.714 10.857h-146.286v146.286q0 14.857-10.857 25.714t-25.714 10.857h-73.143q-14.857 0-25.714-10.857t-10.857-25.714v-146.286h-146.286q-14.857 0-25.714-10.857t-10.857-25.714v-73.143q0-14.857 10.857-25.714t25.714-10.857h146.286v-146.286q0-14.857 10.857-25.714t25.714-10.857h73.143q14.857 0 25.714 10.857t10.857 25.714v146.286h146.286q14.857 0 25.714 10.857t10.857 25.714zM877.714 448q0-119.429-58.857-220.286t-159.714-159.714-220.286-58.857-220.286 58.857-159.714 159.714-58.857 220.286 58.857 220.286 159.714 159.714 220.286 58.857 220.286-58.857 159.714-159.714 58.857-220.286z" />
<glyph unicode="&#xe0a9;" glyph-name="minus-sign" horiz-adv-x="878" d="M694.857 411.429v73.143q0 14.857-10.857 25.714t-25.714 10.857h-438.857q-14.857 0-25.714-10.857t-10.857-25.714v-73.143q0-14.857 10.857-25.714t25.714-10.857h438.857q14.857 0 25.714 10.857t10.857 25.714zM877.714 448q0-119.429-58.857-220.286t-159.714-159.714-220.286-58.857-220.286 58.857-159.714 159.714-58.857 220.286 58.857 220.286 159.714 159.714 220.286 58.857 220.286-58.857 159.714-159.714 58.857-220.286z" />
<glyph unicode="&#xe0aa;" glyph-name="remove-sign" horiz-adv-x="878" d="M656.571 318.857q0 14.857-10.857 25.714l-103.429 103.429 103.429 103.429q10.857 10.857 10.857 25.714 0 15.429-10.857 26.286l-51.429 51.429q-10.857 10.857-26.286 10.857-14.857 0-25.714-10.857l-103.429-103.429-103.429 103.429q-10.857 10.857-25.714 10.857-15.429 0-26.286-10.857l-51.429-51.429q-10.857-10.857-10.857-26.286 0-14.857 10.857-25.714l103.429-103.429-103.429-103.429q-10.857-10.857-10.857-25.714 0-15.429 10.857-26.286l51.429-51.429q10.857-10.857 26.286-10.857 14.857 0 25.714 10.857l103.429 103.429 103.429-103.429q10.857-10.857 25.714-10.857 15.429 0 26.286 10.857l51.429 51.429q10.857 10.857 10.857 26.286zM877.714 448q0-119.429-58.857-220.286t-159.714-159.714-220.286-58.857-220.286 58.857-159.714 159.714-58.857 220.286 58.857 220.286 159.714 159.714 220.286 58.857 220.286-58.857 159.714-159.714 58.857-220.286z" />
<glyph unicode="&#xe0ab;" glyph-name="ok-sign" horiz-adv-x="878" d="M733.714 540.571q0 16-10.286 26.286l-52 51.429q-10.857 10.857-25.714 10.857t-25.714-10.857l-233.143-232.571-129.143 129.143q-10.857 10.857-25.714 10.857t-25.714-10.857l-52-51.429q-10.286-10.286-10.286-26.286 0-15.429 10.286-25.714l206.857-206.857q10.857-10.857 25.714-10.857 15.429 0 26.286 10.857l310.286 310.286q10.286 10.286 10.286 25.714zM877.714 448q0-119.429-58.857-220.286t-159.714-159.714-220.286-58.857-220.286 58.857-159.714 159.714-58.857 220.286 58.857 220.286 159.714 159.714 220.286 58.857 220.286-58.857 159.714-159.714 58.857-220.286z" />
<glyph unicode="&#xe0ac;" glyph-name="question-sign" horiz-adv-x="878" d="M512 173.714v109.714q0 8-5.143 13.143t-13.143 5.143h-109.714q-8 0-13.143-5.143t-5.143-13.143v-109.714q0-8 5.143-13.143t13.143-5.143h109.714q8 0 13.143 5.143t5.143 13.143zM658.286 557.714q0 50.286-31.714 93.143t-79.143 66.286-97.143 23.429q-138.857 0-212-121.714-8.571-13.714 4.571-24l75.429-57.143q4-3.429 10.857-3.429 9.143 0 14.286 6.857 30.286 38.857 49.143 52.571 19.429 13.714 49.143 13.714 27.429 0 48.857-14.857t21.429-33.714q0-21.714-11.429-34.857t-38.857-25.714q-36-16-66-49.429t-30-71.714v-20.571q0-8 5.143-13.143t13.143-5.143h109.714q8 0 13.143 5.143t5.143 13.143q0 10.857 12.286 28.286t31.143 28.286q18.286 10.286 28 16.286t26.286 20 25.429 27.429 16 34.571 7.143 46.286zM877.714 448q0-119.429-58.857-220.286t-159.714-159.714-220.286-58.857-220.286 58.857-159.714 159.714-58.857 220.286 58.857 220.286 159.714 159.714 220.286 58.857 220.286-58.857 159.714-159.714 58.857-220.286z" />
<glyph unicode="&#xe0ad;" glyph-name="exclamation-sign" horiz-adv-x="878" d="M438.857 886.857q119.429 0 220.286-58.857t159.714-159.714 58.857-220.286-58.857-220.286-159.714-159.714-220.286-58.857-220.286 58.857-159.714 159.714-58.857 220.286 58.857 220.286 159.714 159.714 220.286 58.857zM512 174.286v108.571q0 8-5.143 13.429t-12.571 5.429h-109.714q-7.429 0-13.143-5.714t-5.714-13.143v-108.571q0-7.429 5.714-13.143t13.143-5.714h109.714q7.429 0 12.571 5.429t5.143 13.429zM510.857 370.857l10.286 354.857q0 6.857-5.714 10.286-5.714 4.571-13.714 4.571h-125.714q-8 0-13.714-4.571-5.714-3.429-5.714-10.286l9.714-354.857q0-5.714 5.714-10t13.714-4.286h105.714q8 0 13.429 4.286t6 10z" />
<glyph unicode="&#xe0ae;" glyph-name="info-sign" horiz-adv-x="878" d="M585.143 173.714v91.429q0 8-5.143 13.143t-13.143 5.143h-54.857v292.571q0 8-5.143 13.143t-13.143 5.143h-182.857q-8 0-13.143-5.143t-5.143-13.143v-91.429q0-8 5.143-13.143t13.143-5.143h54.857v-182.857h-54.857q-8 0-13.143-5.143t-5.143-13.143v-91.429q0-8 5.143-13.143t13.143-5.143h256q8 0 13.143 5.143t5.143 13.143zM512 685.714v91.429q0 8-5.143 13.143t-13.143 5.143h-109.714q-8 0-13.143-5.143t-5.143-13.143v-91.429q0-8 5.143-13.143t13.143-5.143h109.714q8 0 13.143 5.143t5.143 13.143zM877.714 448q0-119.429-58.857-220.286t-159.714-159.714-220.286-58.857-220.286 58.857-159.714 159.714-58.857 220.286 58.857 220.286 159.714 159.714 220.286 58.857 220.286-58.857 159.714-159.714 58.857-220.286z" />
<glyph unicode="&#xe0af;" glyph-name="login" d="M384 448h-320v128h320v128l192-192-192-192zM1024 960v-832l-384-192v192h-384v256h64v-192h320v576l256 128h-576v-256h-64v320z" />
<glyph unicode="&#xe0b0;" glyph-name="logout" d="M768 320v128h-320v128h320v128l192-192zM704 384v-256h-320v-192l-384 192v832h704v-320h-64v256h-512l256-128v-576h256v192z" />
<glyph unicode="&#xe0b1;" glyph-name="arrow-up" d="M0 320l192-192 320 320 320-320 192 192-511.998 512z" />
<glyph unicode="&#xe0b2;" glyph-name="arrow-right" d="M384 960l-192-192 320-320-320-320 192-192 512 512z" />
<glyph unicode="&#xe0b3;" glyph-name="arrow-down" d="M1024 576l-192 192-320-320-320 320-192-192 512-511.998z" />
<glyph unicode="&#xe0b4;" glyph-name="arrow-left" d="M640-64l192 192-320 320 320 320-192 192-512-512z" />
<glyph unicode="&#xe0b5;" glyph-name="arrow-up2" d="M768 320l-256 256-256-256z" />
<glyph unicode="&#xe0b6;" glyph-name="arrow-right2" d="M384.002 192l256 256-256 256z" />
<glyph unicode="&#xe0b7;" glyph-name="arrow-down2" d="M256 576l256-256 256 256z" />
<glyph unicode="&#xe0b8;" glyph-name="arrow-left2" d="M640.002 704l-256-256 256-256.002z" />
<glyph unicode="&#xe0b9;" glyph-name="arrow-up3" d="M474.524 752.476l-224-224c-20.698-20.7-20.698-54.254 0-74.954s54.256-20.7 74.954 0l122.522 122.524v-342.046c0-35.346 28.652-64 64-64 35.346 0 64 28.654 64 64v342.046l122.524-122.524c20.698-20.7 54.256-20.7 74.954 0 10.35 10.35 15.524 23.912 15.524 37.476s-5.174 27.126-15.524 37.476l-224 224c-20.698 20.7-54.258 20.7-74.954 0.002zM0 448c0-282.77 229.23-512 512-512s512 229.23 512 512-229.23 512-512 512-512-229.23-512-512zM928 448c0-229.75-186.25-416-416-416s-416 186.25-416 416 186.25 416 416 416 416-186.25 416-416z" />
<glyph unicode="&#xe0ba;" glyph-name="arrow-right3" d="M816.476 485.476l-224 224c-20.7 20.698-54.254 20.698-74.954 0-20.698-20.698-20.698-54.256 0-74.954l122.524-122.522h-342.046c-35.346 0-64-28.654-64-64s28.654-64 64-64h342.046l-122.524-122.524c-20.698-20.698-20.698-54.256 0-74.954 10.35-10.35 23.912-15.524 37.476-15.524s27.126 5.174 37.476 15.524l224 224c20.7 20.698 20.7 54.258 0.002 74.954zM512 960c-282.77 0-512-229.23-512-512s229.23-512 512-512 512 229.23 512 512-229.23 512-512 512zM512 32c-229.75 0-416 186.25-416 416s186.25 416 416 416 416-186.25 416-416-186.25-416-416-416z" />
<glyph unicode="&#xe0bb;" glyph-name="arrow-down3" d="M549.476 143.524l224 224c20.698 20.7 20.698 54.254 0 74.954-20.698 20.698-54.256 20.698-74.954 0l-122.522-122.524v342.046c0 35.346-28.652 64-64 64-35.346 0-64-28.654-64-64v-342.046l-122.524 122.524c-20.698 20.698-54.256 20.698-74.954 0-10.35-10.35-15.524-23.912-15.524-37.476s5.174-27.126 15.524-37.476l224-224c20.698-20.7 54.258-20.7 74.954-0.002zM1024 448c0 282.77-229.23 512-512 512s-512-229.23-512-512 229.23-512 512-512 512 229.23 512 512zM96 448c0 229.75 186.25 416 416 416s416-186.25 416-416-186.25-416-416-416-416 186.25-416 416z" />
<glyph unicode="&#xe0bc;" glyph-name="arrow-left3" d="M207.524 410.524l224-224c20.7-20.698 54.254-20.698 74.954 0s20.7 54.256 0 74.954l-122.524 122.522h342.046c35.346 0 64 28.652 64 64 0 35.346-28.654 64-64 64h-342.046l122.524 122.524c20.7 20.698 20.7 54.256 0 74.954-10.35 10.35-23.912 15.524-37.476 15.524s-27.126-5.174-37.476-15.524l-224-224c-20.7-20.698-20.7-54.258-0.002-74.954zM512-64c282.77 0 512 229.23 512 512s-229.23 512-512 512-512-229.23-512-512 229.23-512 512-512zM512 864c229.75 0 416-186.25 416-416s-186.25-416-416-416-416 186.25-416 416 186.25 416 416 416z" />
<glyph unicode="&#xe0bd;" glyph-name="arrow-up4" d="M1024 192l-512 512-512-512 512 256z" />
<glyph unicode="&#xe0be;" glyph-name="arrow-right4" d="M256-64l512 512-512 512 256-512z" />
<glyph unicode="&#xe0bf;" glyph-name="arrow-down4" d="M0 704l512-512 512 512-512-256z" />
<glyph unicode="&#xe0c0;" glyph-name="arrow-left4" d="M768 960l-512-512 512-512-255.998 512z" />
<glyph unicode="&#xe0c1;" glyph-name="arrow-down5" d="M767.95 554.676c0-4.444-1.704-8.382-5.132-11.802l-239.040-239.012c-3.42-3.458-7.36-5.136-11.802-5.136-4.456 0-8.394 1.68-11.812 5.136l-239.040 239.012c-3.42 3.42-5.124 7.358-5.124 11.802 0 4.456 1.704 8.394 5.124 11.814l25.664 25.652c3.42 3.432 7.358 5.136 11.814 5.136 4.444 0 8.38-1.704 11.8-5.136l201.598-201.574 201.61 201.572c3.408 3.432 7.332 5.136 11.8 5.136 4.446 0 8.372-1.704 11.802-5.136l25.65-25.652c3.434-3.42 5.136-7.358 5.136-11.814h-0.048z" />
</font>
</defs>
</svg>
